<svg xmlns="http://www.w3.org/2000/svg" xmlns:xlink="http://www.w3.org/1999/xlink" xmlns:lucid="lucid" width="2190.5" height="976"><g transform="translate(-73.99999999999997 -140)" lucid:page-tab-id="0_0"><path d="M0 0h2375.54v1784.55H0z" fill="#fff"/><path d="M120.5 580.2c0-4.42 3.58-8 8-8H413c4.42 0 8 3.58 8 8v216c0 4.42-3.58 8-8 8H128.5c-4.42 0-8-3.58-8-8z" fill="#fff"/><path d="M120.5 580.2c0-4.42 3.58-8 8-8H413c4.42 0 8 3.58 8 8v216c0 4.42-3.58 8-8 8H128.5c-4.42 0-8-3.58-8-8zM120.5 612.2H421M160.32 612.2v192M314.8 612.2v192" stroke="#333" fill="none"/><use xlink:href="#a" transform="matrix(1,0,0,1,130.5,572.1996672212979) translate(109.525 23.6)"/><use xlink:href="#b" transform="matrix(1,0,0,1,125.5,614.6996672212979) translate(3 17.1)"/><use xlink:href="#c" transform="matrix(1,0,0,1,165.32226222293525,614.6996672212979) translate(32.55 17.1)"/><use xlink:href="#d" transform="matrix(1,0,0,1,319.79935090029744,614.6996672212979) translate(34.05 17.1)"/><use xlink:href="#e" transform="matrix(1,0,0,1,125.5,646.6996672212979) translate(3.5249999999999986 17.1)"/><use xlink:href="#f" transform="matrix(1,0,0,1,165.32226222293525,646.6996672212979) translate(27.074999999999996 17.1)"/><use xlink:href="#d" transform="matrix(1,0,0,1,319.79935090029744,646.6996672212979) translate(34.05 17.1)"/><use xlink:href="#e" transform="matrix(1,0,0,1,125.5,678.6996672212979) translate(3.5249999999999986 17.1)"/><use xlink:href="#g" transform="matrix(1,0,0,1,165.32226222293525,678.6996672212979) translate(18.574999999999996 17.1)"/><use xlink:href="#d" transform="matrix(1,0,0,1,319.79935090029744,678.6996672212979) translate(34.05 17.1)"/><use xlink:href="#h" transform="matrix(1,0,0,1,165.32226222293525,710.6996672212979) translate(27.599999999999994 17.1)"/><use xlink:href="#i" transform="matrix(1,0,0,1,319.79935090029744,710.6996672212979) translate(-1.2000000000000028 17.1)"/><use xlink:href="#j" transform="matrix(1,0,0,1,165.32226222293525,742.6996672212979) translate(39.55 17.1)"/><use xlink:href="#k" transform="matrix(1,0,0,1,319.79935090029744,742.6996672212979) translate(11.549999999999997 17.1)"/><use xlink:href="#l" transform="matrix(1,0,0,1,165.32226222293525,774.6996672212979) translate(32.55 17.1)"/><use xlink:href="#k" transform="matrix(1,0,0,1,319.79935090029744,774.6996672212979) translate(11.549999999999997 17.1)"/><path d="M1020.5 200c0-4.42 3.58-8 8-8h284c4.42 0 8 3.58 8 8v88c0 4.42-3.58 8-8 8h-284c-4.42 0-8-3.58-8-8z" fill="#fff"/><path d="M1020.5 200c0-4.42 3.58-8 8-8h284c4.42 0 8 3.58 8 8v88c0 4.42-3.58 8-8 8h-284c-4.42 0-8-3.58-8-8zM1020.5 232h300M1060.32 232v64M1212.73 232v64" stroke="#333" fill="none"/><use xlink:href="#m" transform="matrix(1,0,0,1,1030.5,192) translate(101.07499999999999 23.6)"/><use xlink:href="#b" transform="matrix(1,0,0,1,1025.5,234.5) translate(3 17.1)"/><use xlink:href="#n" transform="matrix(1,0,0,1,1065.3222622229353,234.5) translate(23.599999999999994 17.1)"/><use xlink:href="#d" transform="matrix(1,0,0,1,1217.7301029512585,234.5) translate(34.55 17.1)"/><use xlink:href="#e" transform="matrix(1,0,0,1,1025.5,266.5) translate(3.5249999999999986 17.1)"/><use xlink:href="#o" transform="matrix(1,0,0,1,1065.3222622229353,266.5) translate(31.549999999999997 17.1)"/><use xlink:href="#d" transform="matrix(1,0,0,1,1217.7301029512585,266.5) translate(34.55 17.1)"/><path d="M1518.5 667.9c0-4.43 3.58-8 8-8h284c4.42 0 8 3.57 8 8v152c0 4.4-3.58 8-8 8h-284c-4.42 0-8-3.6-8-8z" fill="#fff"/><path d="M1518.5 667.9c0-4.43 3.58-8 8-8h284c4.42 0 8 3.57 8 8v152c0 4.4-3.58 8-8 8h-284c-4.42 0-8-3.6-8-8zM1518.5 699.9h300M1558.32 699.9v128M1724.5 699.9v128" stroke="#333" fill="none"/><use xlink:href="#p" transform="matrix(1,0,0,1,1528.5,659.893266777593) translate(109.025 23.6)"/><use xlink:href="#b" transform="matrix(1,0,0,1,1523.5,702.393266777593) translate(3 17.1)"/><use xlink:href="#o" transform="matrix(1,0,0,1,1563.3222622229353,702.393266777593) translate(38.55 17.1)"/><use xlink:href="#d" transform="matrix(1,0,0,1,1729.5,702.393266777593) translate(27.549999999999997 17.1)"/><use xlink:href="#e" transform="matrix(1,0,0,1,1523.5,734.393266777593) translate(3.5249999999999986 17.1)"/><use xlink:href="#q" transform="matrix(1,0,0,1,1563.3222622229353,734.393266777593) translate(28.074999999999996 17.1)"/><use xlink:href="#d" transform="matrix(1,0,0,1,1729.5,734.393266777593) translate(27.549999999999997 17.1)"/><use xlink:href="#e" transform="matrix(1,0,0,1,1523.5,766.393266777593) translate(3.5249999999999986 17.1)"/><use xlink:href="#r" transform="matrix(1,0,0,1,1563.3222622229353,766.393266777593) translate(36.05 17.1)"/><use xlink:href="#d" transform="matrix(1,0,0,1,1729.5,766.393266777593) translate(27.549999999999997 17.1)"/><use xlink:href="#s" transform="matrix(1,0,0,1,1563.3222622229353,798.393266777593) translate(19.124999999999993 17.1)"/><use xlink:href="#d" transform="matrix(1,0,0,1,1729.5,798.393266777593) translate(27.549999999999997 17.1)"/><path d="M1898 487.9c0-4.43 3.58-8 8-8h284.5c4.42 0 8 3.57 8 8v120c0 4.4-3.58 8-8 8H1906c-4.42 0-8-3.6-8-8z" fill="#fff"/><path d="M1898 487.9c0-4.43 3.58-8 8-8h284.5c4.42 0 8 3.57 8 8v120c0 4.4-3.58 8-8 8H1906c-4.42 0-8-3.6-8-8zM1898 519.9h300.5M1937.82 519.9v96M2104.5 519.9v96" stroke="#333" fill="none"/><use xlink:href="#t" transform="matrix(1,0,0,1,1908,479.893266777593) translate(99.05 23.6)"/><use xlink:href="#b" transform="matrix(1,0,0,1,1903,522.393266777593) translate(3 17.1)"/><use xlink:href="#q" transform="matrix(1,0,0,1,1942.8222622229353,522.393266777593) translate(28.074999999999996 17.1)"/><use xlink:href="#d" transform="matrix(1,0,0,1,2109.5,522.393266777593) translate(27.549999999999997 17.1)"/><use xlink:href="#u" transform="matrix(1,0,0,1,1942.8222622229353,554.393266777593) translate(15.574999999999996 17.1)"/><use xlink:href="#d" transform="matrix(1,0,0,1,2109.5,554.393266777593) translate(27.549999999999997 17.1)"/><use xlink:href="#v" transform="matrix(1,0,0,1,1942.8222622229353,586.393266777593) translate(15.149999999999991 17.1)"/><use xlink:href="#d" transform="matrix(1,0,0,1,2109.5,586.393266777593) translate(27.549999999999997 17.1)"/><path d="M1917.5 967.9c0-4.43 3.58-8 8-8H2210c4.42 0 8 3.57 8 8v88c0 4.4-3.58 8-8 8h-284.5c-4.42 0-8-3.6-8-8z" fill="#fff"/><path d="M1917.5 967.9c0-4.43 3.58-8 8-8H2210c4.42 0 8 3.57 8 8v88c0 4.4-3.58 8-8 8h-284.5c-4.42 0-8-3.6-8-8zM1917.5 999.9H2218M1957.32 999.9v64M2114 999.9v64" stroke="#333" fill="none"/><use xlink:href="#w" transform="matrix(1,0,0,1,1927.5,959.893266777593) translate(89.55 23.6)"/><use xlink:href="#b" transform="matrix(1,0,0,1,1922.5,1002.393266777593) translate(3 17.1)"/><use xlink:href="#x" transform="matrix(1,0,0,1,1962.3222622229353,1002.393266777593) translate(27.049999999999997 17.1)"/><use xlink:href="#d" transform="matrix(1,0,0,1,2119,1002.393266777593) translate(32.55 17.1)"/><use xlink:href="#y" transform="matrix(1,0,0,1,1962.3222622229353,1034.393266777593) translate(58.05 17.1)"/><use xlink:href="#i" transform="matrix(1,0,0,1,2119,1034.393266777593) translate(-2.700000000000003 17.1)"/><path d="M1918 731.9c0-4.43 3.58-8 8-8h284c4.42 0 8 3.57 8 8v152c0 4.4-3.58 8-8 8h-284c-4.42 0-8-3.6-8-8z" fill="#fff"/><path d="M1918 731.9c0-4.43 3.58-8 8-8h284c4.42 0 8 3.57 8 8v152c0 4.4-3.58 8-8 8h-284c-4.42 0-8-3.6-8-8zM1918 763.9h300M1957.82 763.9v128M2110.23 763.9v128" stroke="#333" fill="none"/><use xlink:href="#z" transform="matrix(1,0,0,1,1928,723.893266777593) translate(106.525 23.6)"/><use xlink:href="#b" transform="matrix(1,0,0,1,1923,766.393266777593) translate(3 17.1)"/><use xlink:href="#r" transform="matrix(1,0,0,1,1962.8222622229353,766.393266777593) translate(29.049999999999997 17.1)"/><use xlink:href="#d" transform="matrix(1,0,0,1,2115.2301029512582,766.393266777593) translate(34.55 17.1)"/><use xlink:href="#e" transform="matrix(1,0,0,1,1923,798.393266777593) translate(3.5249999999999986 17.1)"/><use xlink:href="#x" transform="matrix(1,0,0,1,1962.8222622229353,798.393266777593) translate(25.049999999999997 17.1)"/><use xlink:href="#d" transform="matrix(1,0,0,1,2115.2301029512582,798.393266777593) translate(34.55 17.1)"/><use xlink:href="#A" transform="matrix(1,0,0,1,1962.8222622229353,830.393266777593) translate(21.074999999999996 17.1)"/><use xlink:href="#i" transform="matrix(1,0,0,1,2115.2301029512582,830.393266777593) translate(-0.7000000000000028 17.1)"/><use xlink:href="#B" transform="matrix(1,0,0,1,1962.8222622229353,862.393266777593) translate(13.099999999999994 17.1)"/><use xlink:href="#d" transform="matrix(1,0,0,1,2115.2301029512582,862.393266777593) translate(34.55 17.1)"/><path d="M1839 747.9h7.25c6.63 0 12-5.38 12-12V547.84c0-6.62 5.37-12 12-12h7.84" stroke="#333" fill="none"/><path d="M1839 757.9v-20M1819 747.9h20" stroke="#333" fill="#fff"/><path d="M1897.28 545.85l-20-10 20-10" stroke="#333" fill="#fff" fill-opacity="0"/><path d="M1897.28 535.85h-20" stroke="#333" fill="#fff"/><path d="M1341 280h107c6.63 0 12 5.37 12 12v411.9c0 6.62 5.37 12 12 12h26.6" stroke="#333" fill="none"/><path d="M1341 290v-20M1321 280h20" stroke="#333" fill="#fff"/><path d="M1517.78 725.9l-20-10 20-10" stroke="#333" fill="#fff" fill-opacity="0"/><path d="M1517.78 715.9h-20" stroke="#333" fill="#fff"/><path d="M1839 779.9h59.1" stroke="#333" fill="none"/><path d="M1839 789.9v-20M1819 779.9h20" stroke="#333" fill="#fff"/><path d="M1917.28 789.9l-20-10 20-10" stroke="#333" fill="#fff" fill-opacity="0"/><path d="M1917.28 779.9h-20" stroke="#333" fill="#fff"/><path d="M2238.5 1048h8c6.63 0 12-5.36 12-12V821.6c0-6.63-5.37-12-12-12h-8.6" stroke="#333" fill="none"/><path d="M2238.5 1058v-20M2218.5 1048h20" stroke="#333" fill="#fff"/><path d="M2218.72 799.6l20 10-20 10" stroke="#333" fill="#fff" fill-opacity="0"/><path d="M2218.72 809.6h20" stroke="#333" fill="#fff"/><path d="M520.5 168c0-4.42 3.58-8 8-8H813c4.42 0 8 3.58 8 8v312c0 4.42-3.58 8-8 8H528.5c-4.42 0-8-3.58-8-8z" fill="#fff"/><path d="M520.5 168c0-4.42 3.58-8 8-8H813c4.42 0 8 3.58 8 8v312c0 4.42-3.58 8-8 8H528.5c-4.42 0-8-3.58-8-8zM520.5 200H821M560.32 200v288M730 200v288" stroke="#333" fill="none"/><use xlink:href="#C" transform="matrix(1,0,0,1,530.5,160) translate(113.05 23.6)"/><use xlink:href="#b" transform="matrix(1,0,0,1,525.5,202.5) translate(3 17.1)"/><use xlink:href="#D" transform="matrix(1,0,0,1,565.3222622229353,202.5) translate(48.074999999999996 17.1)"/><use xlink:href="#d" transform="matrix(1,0,0,1,734.9934810269153,202.5) translate(26.549999999999997 17.1)"/><use xlink:href="#e" transform="matrix(1,0,0,1,525.5,234.5) translate(3.5249999999999986 17.1)"/><use xlink:href="#n" transform="matrix(1,0,0,1,565.3222622229353,234.5) translate(32.099999999999994 17.1)"/><use xlink:href="#d" transform="matrix(1,0,0,1,734.9934810269153,234.5) translate(26.549999999999997 17.1)"/><use xlink:href="#e" transform="matrix(1,0,0,1,525.5,266.5) translate(3.5249999999999986 17.1)"/><use xlink:href="#E" transform="matrix(1,0,0,1,565.3222622229353,266.5) translate(31.099999999999994 17.1)"/><use xlink:href="#d" transform="matrix(1,0,0,1,734.9934810269153,266.5) translate(26.549999999999997 17.1)"/><use xlink:href="#e" transform="matrix(1,0,0,1,525.5,298.5) translate(3.5249999999999986 17.1)"/><use xlink:href="#F" transform="matrix(1,0,0,1,565.3222622229353,298.5) translate(31.074999999999996 17.1)"/><use xlink:href="#d" transform="matrix(1,0,0,1,734.9934810269153,298.5) translate(26.549999999999997 17.1)"/><use xlink:href="#e" transform="matrix(1,0,0,1,525.5,330.5) translate(3.5249999999999986 17.1)"/><use xlink:href="#G" transform="matrix(1,0,0,1,565.3222622229353,330.5) translate(38.05 17.1)"/><use xlink:href="#d" transform="matrix(1,0,0,1,734.9934810269153,330.5) translate(26.549999999999997 17.1)"/><use xlink:href="#H" transform="matrix(1,0,0,1,565.3222622229353,362.5) translate(20.549999999999997 17.1)"/><use xlink:href="#I" transform="matrix(1,0,0,1,734.9934810269153,362.5) translate(17.724999999999998 17.1)"/><use xlink:href="#J" transform="matrix(1,0,0,1,565.3222622229353,394.5) translate(18.074999999999996 17.1)"/><use xlink:href="#I" transform="matrix(1,0,0,1,734.9934810269153,394.5) translate(17.724999999999998 17.1)"/><use xlink:href="#K" transform="matrix(1,0,0,1,565.3222622229353,426.5) translate(23.624999999999993 17.1)"/><use xlink:href="#I" transform="matrix(1,0,0,1,734.9934810269153,426.5) translate(17.724999999999998 17.1)"/><use xlink:href="#e" transform="matrix(1,0,0,1,525.5,458.5) translate(3.5249999999999986 17.1)"/><use xlink:href="#L" transform="matrix(1,0,0,1,565.3222622229353,458.5) translate(3.674999999999997 17.1)"/><use xlink:href="#d" transform="matrix(1,0,0,1,734.9934810269153,458.5) translate(26.549999999999997 17.1)"/><path d="M520.5 548c0-4.42 3.58-8 8-8H813c4.42 0 8 3.58 8 8v152c0 4.42-3.58 8-8 8H528.5c-4.42 0-8-3.58-8-8z" fill="#fff"/><path d="M520.5 548c0-4.42 3.58-8 8-8H813c4.42 0 8 3.58 8 8v152c0 4.42-3.58 8-8 8H528.5c-4.42 0-8-3.58-8-8zM520.5 580H821M560.32 580v128M709.1 580v128" stroke="#333" fill="none"/><use xlink:href="#M" transform="matrix(1,0,0,1,530.5,540) translate(100.57499999999999 23.6)"/><use xlink:href="#b" transform="matrix(1,0,0,1,525.5,582.5) translate(3 17.1)"/><use xlink:href="#E" transform="matrix(1,0,0,1,565.3222622229353,582.5) translate(20.599999999999994 17.1)"/><use xlink:href="#d" transform="matrix(1,0,0,1,714.1127377437242,582.5) translate(36.55 17.1)"/><use xlink:href="#e" transform="matrix(1,0,0,1,525.5,614.5) translate(3.5249999999999986 17.1)"/><use xlink:href="#c" transform="matrix(1,0,0,1,565.3222622229353,614.5) translate(29.549999999999997 17.1)"/><use xlink:href="#d" transform="matrix(1,0,0,1,714.1127377437242,614.5) translate(36.55 17.1)"/><use xlink:href="#N" transform="matrix(1,0,0,1,565.3222622229353,646.5) translate(31.049999999999997 17.1)"/><use xlink:href="#d" transform="matrix(1,0,0,1,714.1127377437242,646.5) translate(36.55 17.1)"/><use xlink:href="#O" transform="matrix(1,0,0,1,565.3222622229353,678.5) translate(49.05 17.1)"/><use xlink:href="#d" transform="matrix(1,0,0,1,714.1127377437242,678.5) translate(36.55 17.1)"/><path d="M120.5 848c0-4.42 3.58-8 8-8H413c4.42 0 8 3.58 8 8v120c0 4.42-3.58 8-8 8H128.5c-4.42 0-8-3.58-8-8z" fill="#fff"/><path d="M120.5 848c0-4.42 3.58-8 8-8H413c4.42 0 8 3.58 8 8v120c0 4.42-3.58 8-8 8H128.5c-4.42 0-8-3.58-8-8zM120.5 880H421M160.32 880v96M309.1 880v96" stroke="#333" fill="none"/><use xlink:href="#P" transform="matrix(1,0,0,1,130.5,840) translate(82.025 23.6)"/><use xlink:href="#b" transform="matrix(1,0,0,1,125.5,882.5) translate(3 17.1)"/><use xlink:href="#c" transform="matrix(1,0,0,1,165.32226222293525,882.5) translate(29.549999999999997 17.1)"/><use xlink:href="#d" transform="matrix(1,0,0,1,314.1127377437242,882.5) translate(36.55 17.1)"/><use xlink:href="#e" transform="matrix(1,0,0,1,125.5,914.5) translate(3.5249999999999986 17.1)"/><use xlink:href="#Q" transform="matrix(1,0,0,1,165.32226222293525,914.5) translate(14.899999999999999 17.1)"/><use xlink:href="#d" transform="matrix(1,0,0,1,314.1127377437242,914.5) translate(36.55 17.1)"/><use xlink:href="#N" transform="matrix(1,0,0,1,165.32226222293525,946.5) translate(31.049999999999997 17.1)"/><use xlink:href="#d" transform="matrix(1,0,0,1,314.1127377437242,946.5) translate(36.55 17.1)"/><path d="M520.5 968c0-4.42 3.58-8 8-8H813c4.42 0 8 3.58 8 8v120c0 4.42-3.58 8-8 8H528.5c-4.42 0-8-3.58-8-8z" fill="#fff"/><path d="M520.5 968c0-4.42 3.58-8 8-8H813c4.42 0 8 3.58 8 8v120c0 4.42-3.58 8-8 8H528.5c-4.42 0-8-3.58-8-8zM520.5 1000H821M560.32 1000v96M709.1 1000v96" stroke="#333" fill="none"/><use xlink:href="#R" transform="matrix(1,0,0,1,530.5,960) translate(94.875 23.6)"/><use xlink:href="#b" transform="matrix(1,0,0,1,525.5,1002.5) translate(3 17.1)"/><use xlink:href="#Q" transform="matrix(1,0,0,1,565.3222622229353,1002.5) translate(14.899999999999999 17.1)"/><use xlink:href="#d" transform="matrix(1,0,0,1,714.1127377437242,1002.5) translate(36.55 17.1)"/><use xlink:href="#e" transform="matrix(1,0,0,1,525.5,1034.5) translate(3.5249999999999986 17.1)"/><use xlink:href="#S" transform="matrix(1,0,0,1,565.3222622229353,1034.5) translate(13.599999999999994 17.1)"/><use xlink:href="#d" transform="matrix(1,0,0,1,714.1127377437242,1034.5) translate(36.55 17.1)"/><use xlink:href="#e" transform="matrix(1,0,0,1,525.5,1066.5) translate(3.5249999999999986 17.1)"/><use xlink:href="#o" transform="matrix(1,0,0,1,565.3222622229353,1066.5) translate(29.549999999999997 17.1)"/><use xlink:href="#d" transform="matrix(1,0,0,1,714.1127377437242,1066.5) translate(36.55 17.1)"/><path d="M520.5 752.05c0-4.42 3.58-8 8-8H813c4.42 0 8 3.58 8 8v88c0 4.42-3.58 8-8 8H528.5c-4.42 0-8-3.58-8-8z" fill="#fff"/><path d="M520.5 752.05c0-4.42 3.58-8 8-8H813c4.42 0 8 3.58 8 8v88c0 4.42-3.58 8-8 8H528.5c-4.42 0-8-3.58-8-8zM520.5 784.05H821M560.32 784.05v64M711.54 784.05v64" stroke="#333" fill="none"/><use xlink:href="#T" transform="matrix(1,0,0,1,530.5,744.0532445923459) translate(93.57499999999999 23.6)"/><use xlink:href="#b" transform="matrix(1,0,0,1,525.5,786.5532445923459) translate(3 17.1)"/><use xlink:href="#S" transform="matrix(1,0,0,1,565.3222622229353,786.5532445923459) translate(15.099999999999994 17.1)"/><use xlink:href="#d" transform="matrix(1,0,0,1,716.5433362429856,786.5532445923459) translate(35.55 17.1)"/><use xlink:href="#e" transform="matrix(1,0,0,1,525.5,818.5532445923459) translate(3.5249999999999986 17.1)"/><use xlink:href="#o" transform="matrix(1,0,0,1,565.3222622229353,818.5532445923459) translate(31.049999999999997 17.1)"/><use xlink:href="#d" transform="matrix(1,0,0,1,716.5433362429856,818.5532445923459) translate(35.55 17.1)"/><path d="M1020 603.9c0-4.43 3.58-8 8-8h284.5c4.42 0 8 3.57 8 8v120c0 4.4-3.58 8-8 8H1028c-4.42 0-8-3.6-8-8z" fill="#fff"/><path d="M1020 603.9c0-4.43 3.58-8 8-8h284.5c4.42 0 8 3.57 8 8v120c0 4.4-3.58 8-8 8H1028c-4.42 0-8-3.6-8-8zM1020 635.9h300.5M1059.82 635.9v96M1208.6 635.9v96" stroke="#333" fill="none"/><use xlink:href="#U" transform="matrix(1,0,0,1,1030,595.893266777593) translate(100.55 23.6)"/><use xlink:href="#b" transform="matrix(1,0,0,1,1025,638.393266777593) translate(3 17.1)"/><use xlink:href="#F" transform="matrix(1,0,0,1,1064.8222622229353,638.393266777593) translate(20.574999999999996 17.1)"/><use xlink:href="#d" transform="matrix(1,0,0,1,1213.6127377437242,638.393266777593) translate(36.55 17.1)"/><use xlink:href="#e" transform="matrix(1,0,0,1,1025,670.393266777593) translate(3.5249999999999986 17.1)"/><use xlink:href="#S" transform="matrix(1,0,0,1,1064.8222622229353,670.393266777593) translate(13.599999999999994 17.1)"/><use xlink:href="#d" transform="matrix(1,0,0,1,1213.6127377437242,670.393266777593) translate(36.55 17.1)"/><use xlink:href="#e" transform="matrix(1,0,0,1,1025,702.393266777593) translate(3.5249999999999986 17.1)"/><use xlink:href="#o" transform="matrix(1,0,0,1,1064.8222622229353,702.393266777593) translate(29.549999999999997 17.1)"/><use xlink:href="#d" transform="matrix(1,0,0,1,1213.6127377437242,702.393266777593) translate(36.55 17.1)"/><path d="M1341 715.9h157.6" stroke="#333" fill="none"/><path d="M1341 725.9v-20M1321 715.9h20" stroke="#333" fill="#fff"/><path d="M1517.78 725.9l-20-10 20-10" stroke="#333" fill="#fff" fill-opacity="0"/><path d="M1517.78 715.9h-20" stroke="#333" fill="#fff"/><path d="M1000.1 683.9h-67.6c-6.63 0-12 5.37-12 12v92.15c0 6.63-5.37 12-12 12h-67" stroke="#333" fill="none"/><path d="M1019.28 693.9l-20-10 20-10" stroke="#333" fill="#fff" fill-opacity="0"/><path d="M1019.28 683.9h-20M841.5 810.05v-20M821.5 800.05h20" stroke="#333" fill="#fff"/><path d="M500 800.05h-8c-6.63 0-12 5.38-12 12V1036c0 6.63 5.37 12 12 12h8.6" stroke="#333" fill="none"/><path d="M500 790.05v20M520 800.05h-20" stroke="#333" fill="#fff"/><path d="M519.78 1058l-20-10 20-10" stroke="#333" fill="#fff" fill-opacity="0"/><path d="M519.78 1048h-20" stroke="#333" fill="#fff"/><path d="M500 1016H92c-6.63 0-12-5.37-12-12v-63.93c0-6.63 5.37-12 12-12h8.6" stroke="#333" fill="none"/><path d="M500 1006v20M520 1016h-20" stroke="#333" fill="#fff"/><path d="M119.78 938.07l-20-10 20-10" stroke="#333" fill="#fff" fill-opacity="0"/><path d="M119.78 928.07h-20" stroke="#333" fill="#fff"/><path d="M100 895.96h-8c-6.63 0-12-5.37-12-12V641.1c0-6.6 5.37-12 12-12h8.6" stroke="#333" fill="none"/><path d="M100 885.96v20M120 895.96h-20" stroke="#333" fill="#fff"/><path d="M119.78 639.1l-20-10 20-10" stroke="#333" fill="#fff" fill-opacity="0"/><path d="M119.78 629.1h-20" stroke="#333" fill="#fff"/><path d="M441.5 628h59.1" stroke="#333" fill="none"/><path d="M441.5 638v-20M421.5 628h20" stroke="#333" fill="#fff"/><path d="M519.78 638l-20-10 20-10" stroke="#333" fill="#fff" fill-opacity="0"/><path d="M519.78 628h-20" stroke="#333" fill="#fff"/><path d="M500.6 596h-18.1c-6.63 0-12-5.37-12-12V292c0-6.63 5.37-12 12-12H500" stroke="#333" fill="none"/><path d="M519.78 606l-20-10 20-10" stroke="#333" fill="#fff" fill-opacity="0"/><path d="M519.78 596h-20M500 270v20M520 280h-20" stroke="#333" fill="#fff"/><path d="M999.5 651.9H932c-6.63 0-12-5.38-12-12V324c0-6.63-5.37-12-12-12h-67.1" stroke="#333" fill="none"/><path d="M999.5 641.9v20M1019.5 651.9h-20" stroke="#333" fill="#fff"/><path d="M821.72 302l20 10-20 10" stroke="#333" fill="#fff" fill-opacity="0"/><path d="M821.72 312h20" stroke="#333" fill="#fff"/><path d="M1000 248H840.9" stroke="#333" fill="none"/><path d="M1000 238v20M1020 248h-20" stroke="#333" fill="#fff"/><path d="M821.72 238l20 10-20 10" stroke="#333" fill="#fff" fill-opacity="0"/><path d="M821.72 248h20" stroke="#333" fill="#fff"/><path d="M1518.5 919.95c0-4.42 3.58-8 8-8h284c4.42 0 8 3.58 8 8v152c0 4.4-3.58 8-8 8h-284c-4.42 0-8-3.6-8-8z" fill="#fff"/><path d="M1518.5 919.95c0-4.42 3.58-8 8-8h284c4.42 0 8 3.58 8 8v152c0 4.4-3.58 8-8 8h-284c-4.42 0-8-3.6-8-8zM1518.5 951.95h300M1558.32 951.95v128M1724.5 951.95v128" stroke="#333" fill="none"/><use xlink:href="#V" transform="matrix(1,0,0,1,1528.5,911.9465113699389) translate(89.6 23.6)"/><use xlink:href="#b" transform="matrix(1,0,0,1,1523.5,954.4465113699389) translate(3 17.1)"/><use xlink:href="#s" transform="matrix(1,0,0,1,1563.3222622229353,954.4465113699389) translate(19.124999999999993 17.1)"/><use xlink:href="#d" transform="matrix(1,0,0,1,1729.5,954.4465113699389) translate(27.549999999999997 17.1)"/><use xlink:href="#W" transform="matrix(1,0,0,1,1563.3222622229353,986.4465113699389) translate(32.12499999999999 17.1)"/><use xlink:href="#d" transform="matrix(1,0,0,1,1729.5,986.4465113699389) translate(27.549999999999997 17.1)"/><use xlink:href="#X" transform="matrix(1,0,0,1,1563.3222622229353,1018.4465113699389) translate(32.55 17.1)"/><use xlink:href="#d" transform="matrix(1,0,0,1,1729.5,1018.4465113699389) translate(27.549999999999997 17.1)"/><use xlink:href="#Y" transform="matrix(1,0,0,1,1563.3222622229353,1050.446511369939) translate(56.074999999999996 17.1)"/><use xlink:href="#d" transform="matrix(1,0,0,1,1729.5,1050.446511369939) translate(27.549999999999997 17.1)"/><path d="M1839 812.12h8c6.63 0 12 5.37 12 12v131.83c0 6.62-5.37 12-12 12h-8.6" stroke="#333" fill="none"/><path d="M1839 822.12v-20M1819 812.12h20" stroke="#333" fill="#fff"/><path d="M1819.22 957.95l20 10-20 10" stroke="#333" fill="#fff" fill-opacity="0"/><path d="M1819.22 967.95h20" stroke="#333" fill="#fff"/><path d="M841.5 1080h605c6.63 0 12-5.37 12-12V727.8c0-6.63 5.37-12 12-12h28.1" stroke="#333" fill="none"/><path d="M841.5 1090v-20M821.5 1080h20" stroke="#333" fill="#fff"/><path d="M1517.78 725.8l-20-10 20-10" stroke="#333" fill="#fff" fill-opacity="0"/><path d="M1517.78 715.8h-20" stroke="#333" fill="#fff"/><path d="M1498.6 715.8h-68.1c-6.63 0-12 5.37-12 12v92.37c0 6.63-5.37 12-12 12h-565" stroke="#333" fill="none"/><path d="M1517.78 725.8l-20-10 20-10" stroke="#333" fill="#fff" fill-opacity="0"/><path d="M1517.78 715.8h-20M841.5 842.17v-20M821.5 832.17h20" stroke="#333" fill="#fff"/><path d="M841.5 344H1408c6.63 0 12 5.37 12 12v347.8c0 6.63 5.37 12 12 12h66.6" stroke="#333" fill="none"/><path d="M841.5 354v-20M821.5 344h20" stroke="#333" fill="#fff"/><path d="M1517.78 725.8l-20-10 20-10" stroke="#333" fill="#fff" fill-opacity="0"/><path d="M1517.78 715.8h-20" stroke="#333" fill="#fff"/><path d="M1018.02 424.48c0-4.42 3.58-8 8-8h323.5c4.42 0 8 3.58 8 8v88c0 4.42-3.58 8-8 8h-323.5c-4.42 0-8-3.58-8-8z" fill="#fff"/><path d="M1018.02 424.48c0-4.42 3.58-8 8-8h323.5c4.42 0 8 3.58 8 8v88c0 4.42-3.58 8-8 8h-323.5c-4.42 0-8-3.58-8-8zM1018.02 456.48h339.5M1057.84 456.48v64M1242.47 456.48v64" stroke="#333" fill="none"/><use xlink:href="#Z" transform="matrix(1,0,0,1,1028.0204734506945,416.4800124792013) translate(92.64999999999999 23.6)"/><use xlink:href="#b" transform="matrix(1,0,0,1,1023.0204734506945,458.9800124792013) translate(3 17.1)"/><use xlink:href="#L" transform="matrix(1,0,0,1,1062.8427356736297,458.9800124792013) translate(11.174999999999997 17.1)"/><use xlink:href="#d" transform="matrix(1,0,0,1,1247.4719744792194,458.9800124792013) translate(38.55 17.1)"/><use xlink:href="#aa" transform="matrix(1,0,0,1,1062.8427356736297,490.9800124792013) translate(29.14999999999999 17.1)"/><use xlink:href="#i" transform="matrix(1,0,0,1,1247.4719744792194,490.9800124792013) translate(3.299999999999997 17.1)"/><path d="M840.9 472.5H970v-.02h27.52" stroke="#333" fill="none"/><path d="M821.72 462.5l20 10-20 10" stroke="#333" fill="#fff" fill-opacity="0"/><path d="M821.72 472.5h20M997.52 462.48v20M1017.52 472.48h-20" stroke="#333" fill="#fff"/><defs><path fill="#333" d="M30-248c87 1 191-15 191 75 0 78-77 80-158 76V0H30v-248zm33 125c57 0 124 11 124-50 0-59-68-47-124-48v98" id="ab"/><path fill="#333" d="M114-163C36-179 61-72 57 0H25l-1-190h30c1 12-1 29 2 39 6-27 23-49 58-41v29" id="ac"/><path fill="#333" d="M100-194c62-1 85 37 85 99 1 63-27 99-86 99S16-35 15-95c0-66 28-99 85-99zM99-20c44 1 53-31 53-75 0-43-8-75-51-75s-53 32-53 75 10 74 51 75" id="ad"/><path fill="#333" d="M85-194c31 0 48 13 60 33l-1-100h32l1 261h-30c-2-10 0-23-3-31C134-8 116 4 85 4 32 4 16-35 15-94c0-66 23-100 70-100zm9 24c-40 0-46 34-46 75 0 40 6 74 45 74 42 0 51-32 51-76 0-42-9-74-50-73" id="ae"/><path fill="#333" d="M84 4C-5 8 30-112 23-190h32v120c0 31 7 50 39 49 72-2 45-101 50-169h31l1 190h-30c-1-10 1-25-2-33-11 22-28 36-60 37" id="af"/><path fill="#333" d="M96-169c-40 0-48 33-48 73s9 75 48 75c24 0 41-14 43-38l32 2c-6 37-31 61-74 61-59 0-76-41-82-99-10-93 101-131 147-64 4 7 5 14 7 22l-32 3c-4-21-16-35-41-35" id="ag"/><path fill="#333" d="M59-47c-2 24 18 29 38 22v24C64 9 27 4 27-40v-127H5v-23h24l9-43h21v43h35v23H59v120" id="ah"/><g id="a"><use transform="matrix(0.05,0,0,0.05,0,0)" xlink:href="#ab"/><use transform="matrix(0.05,0,0,0.05,12,0)" xlink:href="#ac"/><use transform="matrix(0.05,0,0,0.05,17.95,0)" xlink:href="#ad"/><use transform="matrix(0.05,0,0,0.05,27.950000000000003,0)" xlink:href="#ae"/><use transform="matrix(0.05,0,0,0.05,37.95,0)" xlink:href="#af"/><use transform="matrix(0.05,0,0,0.05,47.95,0)" xlink:href="#ag"/><use transform="matrix(0.05,0,0,0.05,56.95,0)" xlink:href="#ah"/></g><path fill="#333" d="M194 0L95-120 63-95V0H30v-248h33v124l119-124h40L117-140 236 0h-42" id="ai"/><g id="b"><use transform="matrix(0.05,0,0,0.05,0,0)" xlink:href="#ab"/><use transform="matrix(0.05,0,0,0.05,12,0)" xlink:href="#ai"/></g><path fill="#333" d="M33 0v-248h34V0H33" id="aj"/><path fill="#333" d="M30-248c118-7 216 8 213 122C240-48 200 0 122 0H30v-248zM63-27c89 8 146-16 146-99s-60-101-146-95v194" id="ak"/><g id="c"><use transform="matrix(0.05,0,0,0.05,0,0)" xlink:href="#ab"/><use transform="matrix(0.05,0,0,0.05,12,0)" xlink:href="#ac"/><use transform="matrix(0.05,0,0,0.05,17.95,0)" xlink:href="#ad"/><use transform="matrix(0.05,0,0,0.05,27.950000000000003,0)" xlink:href="#ae"/><use transform="matrix(0.05,0,0,0.05,37.95,0)" xlink:href="#af"/><use transform="matrix(0.05,0,0,0.05,47.95,0)" xlink:href="#ag"/><use transform="matrix(0.05,0,0,0.05,56.95,0)" xlink:href="#ah"/><use transform="matrix(0.05,0,0,0.05,61.95,0)" xlink:href="#aj"/><use transform="matrix(0.05,0,0,0.05,66.95,0)" xlink:href="#ak"/></g><path fill="#333" d="M190 0L58-211 59 0H30v-248h39L202-35l-2-213h31V0h-41" id="al"/><path fill="#333" d="M127-220V0H93v-220H8v-28h204v28h-85" id="am"/><g id="d"><use transform="matrix(0.05,0,0,0.05,0,0)" xlink:href="#aj"/><use transform="matrix(0.05,0,0,0.05,5,0)" xlink:href="#al"/><use transform="matrix(0.05,0,0,0.05,17.950000000000003,0)" xlink:href="#am"/></g><path fill="#333" d="M63-220v92h138v28H63V0H30v-248h175v28H63" id="an"/><g id="e"><use transform="matrix(0.05,0,0,0.05,0,0)" xlink:href="#an"/><use transform="matrix(0.05,0,0,0.05,10.950000000000001,0)" xlink:href="#ai"/></g><path fill="#333" d="M212-179c-10-28-35-45-73-45-59 0-87 40-87 99 0 60 29 101 89 101 43 0 62-24 78-52l27 14C228-24 195 4 139 4 59 4 22-46 18-125c-6-104 99-153 187-111 19 9 31 26 39 46" id="ao"/><path fill="#333" d="M141-36C126-15 110 5 73 4 37 3 15-17 15-53c-1-64 63-63 125-63 3-35-9-54-41-54-24 1-41 7-42 31l-33-3c5-37 33-52 76-52 45 0 72 20 72 64v82c-1 20 7 32 28 27v20c-31 9-61-2-59-35zM48-53c0 20 12 33 32 33 41-3 63-29 60-74-43 2-92-5-92 41" id="ap"/><path fill="#333" d="M100-194c63 0 86 42 84 106H49c0 40 14 67 53 68 26 1 43-12 49-29l28 8c-11 28-37 45-77 45C44 4 14-33 15-96c1-61 26-98 85-98zm52 81c6-60-76-77-97-28-3 7-6 17-6 28h103" id="aq"/><path fill="#333" d="M177-190C167-65 218 103 67 71c-23-6-38-20-44-43l32-5c15 47 100 32 89-28v-30C133-14 115 1 83 1 29 1 15-40 15-95c0-56 16-97 71-98 29-1 48 16 59 35 1-10 0-23 2-32h30zM94-22c36 0 50-32 50-73 0-42-14-75-50-75-39 0-46 34-46 75s6 73 46 73" id="ar"/><path fill="#333" d="M179-190L93 31C79 59 56 82 12 73V49c39 6 53-20 64-50L1-190h34L92-34l54-156h33" id="as"/><g id="f"><use transform="matrix(0.05,0,0,0.05,0,0)" xlink:href="#ao"/><use transform="matrix(0.05,0,0,0.05,12.950000000000001,0)" xlink:href="#ap"/><use transform="matrix(0.05,0,0,0.05,22.950000000000003,0)" xlink:href="#ah"/><use transform="matrix(0.05,0,0,0.05,27.950000000000003,0)" xlink:href="#aq"/><use transform="matrix(0.05,0,0,0.05,37.95,0)" xlink:href="#ar"/><use transform="matrix(0.05,0,0,0.05,47.95,0)" xlink:href="#ad"/><use transform="matrix(0.05,0,0,0.05,57.95,0)" xlink:href="#ac"/><use transform="matrix(0.05,0,0,0.05,63.900000000000006,0)" xlink:href="#as"/><use transform="matrix(0.05,0,0,0.05,72.9,0)" xlink:href="#aj"/><use transform="matrix(0.05,0,0,0.05,77.9,0)" xlink:href="#ak"/></g><path fill="#333" d="M240 0l2-218c-23 76-54 145-80 218h-23L58-218 59 0H30v-248h44l77 211c21-75 51-140 76-211h43V0h-30" id="at"/><path fill="#333" d="M117-194c89-4 53 116 60 194h-32v-121c0-31-8-49-39-48C34-167 62-67 57 0H25l-1-190h30c1 10-1 24 2 32 11-22 29-35 61-36" id="au"/><path fill="#333" d="M101-234c-31-9-42 10-38 44h38v23H63V0H32v-167H5v-23h27c-7-52 17-82 69-68v24" id="av"/><g id="g"><use transform="matrix(0.05,0,0,0.05,0,0)" xlink:href="#at"/><use transform="matrix(0.05,0,0,0.05,14.950000000000001,0)" xlink:href="#ap"/><use transform="matrix(0.05,0,0,0.05,24.950000000000003,0)" xlink:href="#au"/><use transform="matrix(0.05,0,0,0.05,34.95,0)" xlink:href="#af"/><use transform="matrix(0.05,0,0,0.05,44.95,0)" xlink:href="#av"/><use transform="matrix(0.05,0,0,0.05,49.95,0)" xlink:href="#ap"/><use transform="matrix(0.05,0,0,0.05,59.95,0)" xlink:href="#ag"/><use transform="matrix(0.05,0,0,0.05,68.95,0)" xlink:href="#ah"/><use transform="matrix(0.05,0,0,0.05,73.95,0)" xlink:href="#ad"/><use transform="matrix(0.05,0,0,0.05,83.95,0)" xlink:href="#ac"/><use transform="matrix(0.05,0,0,0.05,89.9,0)" xlink:href="#aj"/><use transform="matrix(0.05,0,0,0.05,94.9,0)" xlink:href="#ak"/></g><path fill="#333" d="M135-143c-3-34-86-38-87 0 15 53 115 12 119 90S17 21 10-45l28-5c4 36 97 45 98 0-10-56-113-15-118-90-4-57 82-63 122-42 12 7 21 19 24 35" id="aw"/><path fill="#333" d="M24-231v-30h32v30H24zM24 0v-190h32V0H24" id="ax"/><path fill="#333" d="M115-194c55 1 70 41 70 98S169 2 115 4C84 4 66-9 55-30l1 105H24l-1-265h31l2 30c10-21 28-34 59-34zm-8 174c40 0 45-34 45-75s-6-73-45-74c-42 0-51 32-51 76 0 43 10 73 51 73" id="ay"/><g id="h"><use transform="matrix(0.05,0,0,0.05,0,0)" xlink:href="#ak"/><use transform="matrix(0.05,0,0,0.05,12.950000000000001,0)" xlink:href="#aq"/><use transform="matrix(0.05,0,0,0.05,22.950000000000003,0)" xlink:href="#aw"/><use transform="matrix(0.05,0,0,0.05,31.950000000000003,0)" xlink:href="#ag"/><use transform="matrix(0.05,0,0,0.05,40.95,0)" xlink:href="#ac"/><use transform="matrix(0.05,0,0,0.05,46.900000000000006,0)" xlink:href="#ax"/><use transform="matrix(0.05,0,0,0.05,50.85000000000001,0)" xlink:href="#ay"/><use transform="matrix(0.05,0,0,0.05,60.85,0)" xlink:href="#ah"/><use transform="matrix(0.05,0,0,0.05,65.85000000000001,0)" xlink:href="#ax"/><use transform="matrix(0.05,0,0,0.05,69.80000000000001,0)" xlink:href="#ad"/><use transform="matrix(0.05,0,0,0.05,79.80000000000001,0)" xlink:href="#au"/></g><path fill="#333" d="M137 0h-34L2-248h35l83 218 83-218h36" id="az"/><path fill="#333" d="M205 0l-28-72H64L36 0H1l101-248h38L239 0h-34zm-38-99l-47-123c-12 45-31 82-46 123h93" id="aA"/><path fill="#333" d="M233-177c-1 41-23 64-60 70L243 0h-38l-65-103H63V0H30v-248c88 3 205-21 203 71zM63-129c60-2 137 13 137-47 0-61-80-42-137-45v92" id="aB"/><path fill="#333" d="M197 0v-115H63V0H30v-248h33v105h134v-105h34V0h-34" id="aC"/><g id="i"><use transform="matrix(0.05,0,0,0.05,0,0)" xlink:href="#al"/><use transform="matrix(0.05,0,0,0.05,12.950000000000001,0)" xlink:href="#az"/><use transform="matrix(0.05,0,0,0.05,23.6,0)" xlink:href="#aA"/><use transform="matrix(0.05,0,0,0.05,35.6,0)" xlink:href="#aB"/><use transform="matrix(0.05,0,0,0.05,48.550000000000004,0)" xlink:href="#ao"/><use transform="matrix(0.05,0,0,0.05,61.5,0)" xlink:href="#aC"/><use transform="matrix(0.05,0,0,0.05,74.45,0)" xlink:href="#aA"/><use transform="matrix(0.05,0,0,0.05,86.45,0)" xlink:href="#aB"/></g><path fill="#333" d="M-5 72V49h209v23H-5" id="aD"/><g id="j"><use transform="matrix(0.05,0,0,0.05,0,0)" xlink:href="#aj"/><use transform="matrix(0.05,0,0,0.05,5,0)" xlink:href="#au"/><use transform="matrix(0.05,0,0,0.05,15,0)" xlink:href="#aD"/><use transform="matrix(0.05,0,0,0.05,25,0)" xlink:href="#ab"/><use transform="matrix(0.05,0,0,0.05,37,0)" xlink:href="#ac"/><use transform="matrix(0.05,0,0,0.05,42.95,0)" xlink:href="#ax"/><use transform="matrix(0.05,0,0,0.05,46.900000000000006,0)" xlink:href="#ag"/><use transform="matrix(0.05,0,0,0.05,55.900000000000006,0)" xlink:href="#aq"/></g><path fill="#333" d="M140-251c81 0 123 46 123 126C263-46 219 4 140 4 59 4 17-45 17-125s42-126 123-126zm0 227c63 0 89-41 89-101s-29-99-89-99c-61 0-89 39-89 99S79-25 140-24" id="aE"/><path fill="#333" d="M232-93c-1 65-40 97-104 97C67 4 28-28 28-90v-158h33c8 89-33 224 67 224 102 0 64-133 71-224h33v155" id="aF"/><path fill="#333" d="M160-131c35 5 61 23 61 61C221 17 115-2 30 0v-248c76 3 177-17 177 60 0 33-19 50-47 57zm-97-11c50-1 110 9 110-42 0-47-63-36-110-37v79zm0 115c55-2 124 14 124-45 0-56-70-42-124-44v89" id="aG"/><path fill="#333" d="M30 0v-248h33v221h125V0H30" id="aH"/><path fill="#333" d="M30 0v-248h187v28H63v79h144v27H63v87h162V0H30" id="aI"/><g id="k"><use transform="matrix(0.05,0,0,0.05,0,0)" xlink:href="#ak"/><use transform="matrix(0.05,0,0,0.05,12.950000000000001,0)" xlink:href="#aE"/><use transform="matrix(0.05,0,0,0.05,26.950000000000003,0)" xlink:href="#aF"/><use transform="matrix(0.05,0,0,0.05,39.900000000000006,0)" xlink:href="#aG"/><use transform="matrix(0.05,0,0,0.05,51.900000000000006,0)" xlink:href="#aH"/><use transform="matrix(0.05,0,0,0.05,61.900000000000006,0)" xlink:href="#aI"/></g><g id="l"><use transform="matrix(0.05,0,0,0.05,0,0)" xlink:href="#aE"/><use transform="matrix(0.05,0,0,0.05,14,0)" xlink:href="#af"/><use transform="matrix(0.05,0,0,0.05,24,0)" xlink:href="#ah"/><use transform="matrix(0.05,0,0,0.05,29,0)" xlink:href="#aD"/><use transform="matrix(0.05,0,0,0.05,39,0)" xlink:href="#ab"/><use transform="matrix(0.05,0,0,0.05,51,0)" xlink:href="#ac"/><use transform="matrix(0.05,0,0,0.05,56.95,0)" xlink:href="#ax"/><use transform="matrix(0.05,0,0,0.05,60.900000000000006,0)" xlink:href="#ag"/><use transform="matrix(0.05,0,0,0.05,69.9,0)" xlink:href="#aq"/></g><path fill="#333" d="M210-169c-67 3-38 105-44 169h-31v-121c0-29-5-50-35-48C34-165 62-65 56 0H25l-1-190h30c1 10-1 24 2 32 10-44 99-50 107 0 11-21 27-35 58-36 85-2 47 119 55 194h-31v-121c0-29-5-49-35-48" id="aJ"/><g id="m"><use transform="matrix(0.05,0,0,0.05,0,0)" xlink:href="#ao"/><use transform="matrix(0.05,0,0,0.05,12.950000000000001,0)" xlink:href="#af"/><use transform="matrix(0.05,0,0,0.05,22.950000000000003,0)" xlink:href="#aw"/><use transform="matrix(0.05,0,0,0.05,31.950000000000003,0)" xlink:href="#ah"/><use transform="matrix(0.05,0,0,0.05,36.95,0)" xlink:href="#ad"/><use transform="matrix(0.05,0,0,0.05,46.95,0)" xlink:href="#aJ"/><use transform="matrix(0.05,0,0,0.05,61.900000000000006,0)" xlink:href="#aq"/><use transform="matrix(0.05,0,0,0.05,71.9,0)" xlink:href="#ac"/></g><g id="n"><use transform="matrix(0.05,0,0,0.05,0,0)" xlink:href="#ao"/><use transform="matrix(0.05,0,0,0.05,12.950000000000001,0)" xlink:href="#af"/><use transform="matrix(0.05,0,0,0.05,22.950000000000003,0)" xlink:href="#aw"/><use transform="matrix(0.05,0,0,0.05,31.950000000000003,0)" xlink:href="#ah"/><use transform="matrix(0.05,0,0,0.05,36.95,0)" xlink:href="#ad"/><use transform="matrix(0.05,0,0,0.05,46.95,0)" xlink:href="#aJ"/><use transform="matrix(0.05,0,0,0.05,61.900000000000006,0)" xlink:href="#aq"/><use transform="matrix(0.05,0,0,0.05,71.9,0)" xlink:href="#ac"/><use transform="matrix(0.05,0,0,0.05,77.85000000000001,0)" xlink:href="#aj"/><use transform="matrix(0.05,0,0,0.05,82.85000000000001,0)" xlink:href="#ak"/></g><g id="o"><use transform="matrix(0.05,0,0,0.05,0,0)" xlink:href="#ao"/><use transform="matrix(0.05,0,0,0.05,12.950000000000001,0)" xlink:href="#ad"/><use transform="matrix(0.05,0,0,0.05,22.950000000000003,0)" xlink:href="#au"/><use transform="matrix(0.05,0,0,0.05,32.95,0)" xlink:href="#ah"/><use transform="matrix(0.05,0,0,0.05,37.95,0)" xlink:href="#ap"/><use transform="matrix(0.05,0,0,0.05,47.95,0)" xlink:href="#ag"/><use transform="matrix(0.05,0,0,0.05,56.95,0)" xlink:href="#ah"/><use transform="matrix(0.05,0,0,0.05,61.95,0)" xlink:href="#aj"/><use transform="matrix(0.05,0,0,0.05,66.95,0)" xlink:href="#ak"/></g><g id="p"><use transform="matrix(0.05,0,0,0.05,0,0)" xlink:href="#ao"/><use transform="matrix(0.05,0,0,0.05,12.950000000000001,0)" xlink:href="#ad"/><use transform="matrix(0.05,0,0,0.05,22.950000000000003,0)" xlink:href="#au"/><use transform="matrix(0.05,0,0,0.05,32.95,0)" xlink:href="#ah"/><use transform="matrix(0.05,0,0,0.05,37.95,0)" xlink:href="#ap"/><use transform="matrix(0.05,0,0,0.05,47.95,0)" xlink:href="#ag"/><use transform="matrix(0.05,0,0,0.05,56.95,0)" xlink:href="#ah"/></g><path fill="#333" d="M24 0v-261h32V0H24" id="aK"/><path fill="#333" d="M106-169C34-169 62-67 57 0H25v-261h32l-1 103c12-21 28-36 61-36 89 0 53 116 60 194h-32v-121c2-32-8-49-39-48" id="aL"/><g id="q"><use transform="matrix(0.05,0,0,0.05,0,0)" xlink:href="#am"/><use transform="matrix(0.05,0,0,0.05,8.950000000000001,0)" xlink:href="#aq"/><use transform="matrix(0.05,0,0,0.05,18.950000000000003,0)" xlink:href="#aK"/><use transform="matrix(0.05,0,0,0.05,22.900000000000002,0)" xlink:href="#aq"/><use transform="matrix(0.05,0,0,0.05,32.900000000000006,0)" xlink:href="#ay"/><use transform="matrix(0.05,0,0,0.05,42.900000000000006,0)" xlink:href="#aL"/><use transform="matrix(0.05,0,0,0.05,52.900000000000006,0)" xlink:href="#ad"/><use transform="matrix(0.05,0,0,0.05,62.900000000000006,0)" xlink:href="#au"/><use transform="matrix(0.05,0,0,0.05,72.9,0)" xlink:href="#aq"/><use transform="matrix(0.05,0,0,0.05,82.9,0)" xlink:href="#aj"/><use transform="matrix(0.05,0,0,0.05,87.9,0)" xlink:href="#ak"/></g><g id="r"><use transform="matrix(0.05,0,0,0.05,0,0)" xlink:href="#aA"/><use transform="matrix(0.05,0,0,0.05,12,0)" xlink:href="#ae"/><use transform="matrix(0.05,0,0,0.05,22,0)" xlink:href="#ae"/><use transform="matrix(0.05,0,0,0.05,32,0)" xlink:href="#ac"/><use transform="matrix(0.05,0,0,0.05,37.95,0)" xlink:href="#aq"/><use transform="matrix(0.05,0,0,0.05,47.95,0)" xlink:href="#aw"/><use transform="matrix(0.05,0,0,0.05,56.95,0)" xlink:href="#aq"/><use transform="matrix(0.05,0,0,0.05,66.95,0)" xlink:href="#aj"/><use transform="matrix(0.05,0,0,0.05,71.95,0)" xlink:href="#ak"/></g><path fill="#333" d="M115-194c53 0 69 39 70 98 0 66-23 100-70 100C84 3 66-7 56-30L54 0H23l1-261h32v101c10-23 28-34 59-34zm-8 174c40 0 45-34 45-75 0-40-5-75-45-74-42 0-51 32-51 76 0 43 10 73 51 73" id="aM"/><g id="s"><use transform="matrix(0.05,0,0,0.05,0,0)" xlink:href="#al"/><use transform="matrix(0.05,0,0,0.05,12.950000000000001,0)" xlink:href="#ap"/><use transform="matrix(0.05,0,0,0.05,22.950000000000003,0)" xlink:href="#aJ"/><use transform="matrix(0.05,0,0,0.05,37.900000000000006,0)" xlink:href="#aq"/><use transform="matrix(0.05,0,0,0.05,47.900000000000006,0)" xlink:href="#aD"/><use transform="matrix(0.05,0,0,0.05,57.900000000000006,0)" xlink:href="#am"/><use transform="matrix(0.05,0,0,0.05,66.85000000000001,0)" xlink:href="#ap"/><use transform="matrix(0.05,0,0,0.05,76.85000000000001,0)" xlink:href="#aM"/><use transform="matrix(0.05,0,0,0.05,86.85000000000001,0)" xlink:href="#aK"/><use transform="matrix(0.05,0,0,0.05,90.80000000000001,0)" xlink:href="#aq"/><use transform="matrix(0.05,0,0,0.05,100.80000000000001,0)" xlink:href="#aj"/><use transform="matrix(0.05,0,0,0.05,105.80000000000001,0)" xlink:href="#ak"/></g><g id="t"><use transform="matrix(0.05,0,0,0.05,0,0)" xlink:href="#am"/><use transform="matrix(0.05,0,0,0.05,8.950000000000001,0)" xlink:href="#aq"/><use transform="matrix(0.05,0,0,0.05,18.950000000000003,0)" xlink:href="#aK"/><use transform="matrix(0.05,0,0,0.05,22.900000000000002,0)" xlink:href="#aq"/><use transform="matrix(0.05,0,0,0.05,32.900000000000006,0)" xlink:href="#ay"/><use transform="matrix(0.05,0,0,0.05,42.900000000000006,0)" xlink:href="#aL"/><use transform="matrix(0.05,0,0,0.05,52.900000000000006,0)" xlink:href="#ad"/><use transform="matrix(0.05,0,0,0.05,62.900000000000006,0)" xlink:href="#au"/><use transform="matrix(0.05,0,0,0.05,72.9,0)" xlink:href="#aq"/></g><g id="u"><use transform="matrix(0.05,0,0,0.05,0,0)" xlink:href="#ab"/><use transform="matrix(0.05,0,0,0.05,12,0)" xlink:href="#aL"/><use transform="matrix(0.05,0,0,0.05,22,0)" xlink:href="#ad"/><use transform="matrix(0.05,0,0,0.05,32,0)" xlink:href="#au"/><use transform="matrix(0.05,0,0,0.05,42,0)" xlink:href="#aq"/><use transform="matrix(0.05,0,0,0.05,52,0)" xlink:href="#aD"/><use transform="matrix(0.05,0,0,0.05,62,0)" xlink:href="#al"/><use transform="matrix(0.05,0,0,0.05,74.95,0)" xlink:href="#af"/><use transform="matrix(0.05,0,0,0.05,84.95,0)" xlink:href="#aJ"/><use transform="matrix(0.05,0,0,0.05,99.9,0)" xlink:href="#aM"/><use transform="matrix(0.05,0,0,0.05,109.9,0)" xlink:href="#aq"/><use transform="matrix(0.05,0,0,0.05,119.9,0)" xlink:href="#ac"/></g><g id="v"><use transform="matrix(0.05,0,0,0.05,0,0)" xlink:href="#at"/><use transform="matrix(0.05,0,0,0.05,14.950000000000001,0)" xlink:href="#ad"/><use transform="matrix(0.05,0,0,0.05,24.950000000000003,0)" xlink:href="#aM"/><use transform="matrix(0.05,0,0,0.05,34.95,0)" xlink:href="#ax"/><use transform="matrix(0.05,0,0,0.05,38.900000000000006,0)" xlink:href="#aK"/><use transform="matrix(0.05,0,0,0.05,42.85000000000001,0)" xlink:href="#aq"/><use transform="matrix(0.05,0,0,0.05,52.85,0)" xlink:href="#aD"/><use transform="matrix(0.05,0,0,0.05,62.85,0)" xlink:href="#al"/><use transform="matrix(0.05,0,0,0.05,75.80000000000001,0)" xlink:href="#af"/><use transform="matrix(0.05,0,0,0.05,85.80000000000001,0)" xlink:href="#aJ"/><use transform="matrix(0.05,0,0,0.05,100.75000000000001,0)" xlink:href="#aM"/><use transform="matrix(0.05,0,0,0.05,110.75,0)" xlink:href="#aq"/><use transform="matrix(0.05,0,0,0.05,120.75,0)" xlink:href="#ac"/></g><g id="w"><use transform="matrix(0.05,0,0,0.05,0,0)" xlink:href="#ab"/><use transform="matrix(0.05,0,0,0.05,12,0)" xlink:href="#ad"/><use transform="matrix(0.05,0,0,0.05,22,0)" xlink:href="#aw"/><use transform="matrix(0.05,0,0,0.05,31,0)" xlink:href="#ah"/><use transform="matrix(0.05,0,0,0.05,36,0)" xlink:href="#ap"/><use transform="matrix(0.05,0,0,0.05,46,0)" xlink:href="#aK"/><use transform="matrix(0.05,0,0,0.05,49.95,0)" xlink:href="#ao"/><use transform="matrix(0.05,0,0,0.05,62.900000000000006,0)" xlink:href="#ad"/><use transform="matrix(0.05,0,0,0.05,72.9,0)" xlink:href="#ae"/><use transform="matrix(0.05,0,0,0.05,82.9,0)" xlink:href="#aq"/><use transform="matrix(0.05,0,0,0.05,92.9,0)" xlink:href="#aw"/></g><g id="x"><use transform="matrix(0.05,0,0,0.05,0,0)" xlink:href="#ab"/><use transform="matrix(0.05,0,0,0.05,12,0)" xlink:href="#ad"/><use transform="matrix(0.05,0,0,0.05,22,0)" xlink:href="#aw"/><use transform="matrix(0.05,0,0,0.05,31,0)" xlink:href="#ah"/><use transform="matrix(0.05,0,0,0.05,36,0)" xlink:href="#ap"/><use transform="matrix(0.05,0,0,0.05,46,0)" xlink:href="#aK"/><use transform="matrix(0.05,0,0,0.05,49.95,0)" xlink:href="#ao"/><use transform="matrix(0.05,0,0,0.05,62.900000000000006,0)" xlink:href="#ad"/><use transform="matrix(0.05,0,0,0.05,72.9,0)" xlink:href="#ae"/><use transform="matrix(0.05,0,0,0.05,82.9,0)" xlink:href="#aq"/></g><g id="y"><use transform="matrix(0.05,0,0,0.05,0,0)" xlink:href="#ao"/><use transform="matrix(0.05,0,0,0.05,12.950000000000001,0)" xlink:href="#ax"/><use transform="matrix(0.05,0,0,0.05,16.900000000000002,0)" xlink:href="#ah"/><use transform="matrix(0.05,0,0,0.05,21.900000000000002,0)" xlink:href="#as"/></g><g id="z"><use transform="matrix(0.05,0,0,0.05,0,0)" xlink:href="#aA"/><use transform="matrix(0.05,0,0,0.05,12,0)" xlink:href="#ae"/><use transform="matrix(0.05,0,0,0.05,22,0)" xlink:href="#ae"/><use transform="matrix(0.05,0,0,0.05,32,0)" xlink:href="#ac"/><use transform="matrix(0.05,0,0,0.05,37.95,0)" xlink:href="#aq"/><use transform="matrix(0.05,0,0,0.05,47.95,0)" xlink:href="#aw"/><use transform="matrix(0.05,0,0,0.05,56.95,0)" xlink:href="#aq"/></g><g id="A"><use transform="matrix(0.05,0,0,0.05,0,0)" xlink:href="#aB"/><use transform="matrix(0.05,0,0,0.05,12.950000000000001,0)" xlink:href="#ad"/><use transform="matrix(0.05,0,0,0.05,22.950000000000003,0)" xlink:href="#ap"/><use transform="matrix(0.05,0,0,0.05,32.95,0)" xlink:href="#ae"/><use transform="matrix(0.05,0,0,0.05,42.95,0)" xlink:href="#aD"/><use transform="matrix(0.05,0,0,0.05,52.95,0)" xlink:href="#al"/><use transform="matrix(0.05,0,0,0.05,65.9,0)" xlink:href="#ap"/><use transform="matrix(0.05,0,0,0.05,75.9,0)" xlink:href="#aJ"/><use transform="matrix(0.05,0,0,0.05,90.85000000000001,0)" xlink:href="#aq"/></g><g id="B"><use transform="matrix(0.05,0,0,0.05,0,0)" xlink:href="#aB"/><use transform="matrix(0.05,0,0,0.05,12.950000000000001,0)" xlink:href="#ad"/><use transform="matrix(0.05,0,0,0.05,22.950000000000003,0)" xlink:href="#ap"/><use transform="matrix(0.05,0,0,0.05,32.95,0)" xlink:href="#ae"/><use transform="matrix(0.05,0,0,0.05,42.95,0)" xlink:href="#aD"/><use transform="matrix(0.05,0,0,0.05,52.95,0)" xlink:href="#al"/><use transform="matrix(0.05,0,0,0.05,65.9,0)" xlink:href="#af"/><use transform="matrix(0.05,0,0,0.05,75.9,0)" xlink:href="#aJ"/><use transform="matrix(0.05,0,0,0.05,90.85000000000001,0)" xlink:href="#aM"/><use transform="matrix(0.05,0,0,0.05,100.85000000000001,0)" xlink:href="#aq"/><use transform="matrix(0.05,0,0,0.05,110.85000000000001,0)" xlink:href="#ac"/></g><g id="C"><use transform="matrix(0.05,0,0,0.05,0,0)" xlink:href="#aE"/><use transform="matrix(0.05,0,0,0.05,14,0)" xlink:href="#ac"/><use transform="matrix(0.05,0,0,0.05,19.95,0)" xlink:href="#ae"/><use transform="matrix(0.05,0,0,0.05,29.950000000000003,0)" xlink:href="#aq"/><use transform="matrix(0.05,0,0,0.05,39.95,0)" xlink:href="#ac"/><use transform="matrix(0.05,0,0,0.05,45.900000000000006,0)" xlink:href="#aw"/></g><g id="D"><use transform="matrix(0.05,0,0,0.05,0,0)" xlink:href="#aE"/><use transform="matrix(0.05,0,0,0.05,14,0)" xlink:href="#ac"/><use transform="matrix(0.05,0,0,0.05,19.95,0)" xlink:href="#ae"/><use transform="matrix(0.05,0,0,0.05,29.950000000000003,0)" xlink:href="#aq"/><use transform="matrix(0.05,0,0,0.05,39.95,0)" xlink:href="#ac"/><use transform="matrix(0.05,0,0,0.05,45.900000000000006,0)" xlink:href="#aj"/><use transform="matrix(0.05,0,0,0.05,50.900000000000006,0)" xlink:href="#ak"/></g><g id="E"><use transform="matrix(0.05,0,0,0.05,0,0)" xlink:href="#aE"/><use transform="matrix(0.05,0,0,0.05,14,0)" xlink:href="#ac"/><use transform="matrix(0.05,0,0,0.05,19.95,0)" xlink:href="#ae"/><use transform="matrix(0.05,0,0,0.05,29.950000000000003,0)" xlink:href="#aq"/><use transform="matrix(0.05,0,0,0.05,39.95,0)" xlink:href="#ac"/><use transform="matrix(0.05,0,0,0.05,45.900000000000006,0)" xlink:href="#aH"/><use transform="matrix(0.05,0,0,0.05,55.900000000000006,0)" xlink:href="#ax"/><use transform="matrix(0.05,0,0,0.05,59.85,0)" xlink:href="#au"/><use transform="matrix(0.05,0,0,0.05,69.85000000000001,0)" xlink:href="#aq"/><use transform="matrix(0.05,0,0,0.05,79.85000000000001,0)" xlink:href="#aj"/><use transform="matrix(0.05,0,0,0.05,84.85000000000001,0)" xlink:href="#ak"/></g><g id="F"><use transform="matrix(0.05,0,0,0.05,0,0)" xlink:href="#aI"/><use transform="matrix(0.05,0,0,0.05,12,0)" xlink:href="#aJ"/><use transform="matrix(0.05,0,0,0.05,26.950000000000003,0)" xlink:href="#ay"/><use transform="matrix(0.05,0,0,0.05,36.95,0)" xlink:href="#aK"/><use transform="matrix(0.05,0,0,0.05,40.900000000000006,0)" xlink:href="#ad"/><use transform="matrix(0.05,0,0,0.05,50.900000000000006,0)" xlink:href="#as"/><use transform="matrix(0.05,0,0,0.05,59.900000000000006,0)" xlink:href="#aq"/><use transform="matrix(0.05,0,0,0.05,69.9,0)" xlink:href="#aq"/><use transform="matrix(0.05,0,0,0.05,79.9,0)" xlink:href="#aj"/><use transform="matrix(0.05,0,0,0.05,84.9,0)" xlink:href="#ak"/></g><g id="G"><use transform="matrix(0.05,0,0,0.05,0,0)" xlink:href="#aA"/><use transform="matrix(0.05,0,0,0.05,12,0)" xlink:href="#ae"/><use transform="matrix(0.05,0,0,0.05,22,0)" xlink:href="#ac"/><use transform="matrix(0.05,0,0,0.05,27.950000000000003,0)" xlink:href="#aq"/><use transform="matrix(0.05,0,0,0.05,37.95,0)" xlink:href="#aw"/><use transform="matrix(0.05,0,0,0.05,46.95,0)" xlink:href="#aw"/><use transform="matrix(0.05,0,0,0.05,55.95,0)" xlink:href="#aq"/><use transform="matrix(0.05,0,0,0.05,65.95,0)" xlink:href="#aj"/><use transform="matrix(0.05,0,0,0.05,70.95,0)" xlink:href="#ak"/></g><g id="H"><use transform="matrix(0.05,0,0,0.05,0,0)" xlink:href="#ab"/><use transform="matrix(0.05,0,0,0.05,12,0)" xlink:href="#ap"/><use transform="matrix(0.05,0,0,0.05,22,0)" xlink:href="#as"/><use transform="matrix(0.05,0,0,0.05,31,0)" xlink:href="#aJ"/><use transform="matrix(0.05,0,0,0.05,45.95,0)" xlink:href="#aq"/><use transform="matrix(0.05,0,0,0.05,55.95,0)" xlink:href="#au"/><use transform="matrix(0.05,0,0,0.05,65.95,0)" xlink:href="#ah"/><use transform="matrix(0.05,0,0,0.05,70.95,0)" xlink:href="#aD"/><use transform="matrix(0.05,0,0,0.05,80.95,0)" xlink:href="#ak"/><use transform="matrix(0.05,0,0,0.05,93.9,0)" xlink:href="#ap"/><use transform="matrix(0.05,0,0,0.05,103.9,0)" xlink:href="#ah"/><use transform="matrix(0.05,0,0,0.05,108.9,0)" xlink:href="#aq"/></g><g id="I"><use transform="matrix(0.05,0,0,0.05,0,0)" xlink:href="#ak"/><use transform="matrix(0.05,0,0,0.05,12.950000000000001,0)" xlink:href="#aA"/><use transform="matrix(0.05,0,0,0.05,23.6,0)" xlink:href="#am"/><use transform="matrix(0.05,0,0,0.05,34.550000000000004,0)" xlink:href="#aI"/></g><path fill="#333" d="M185-189c-5-48-123-54-124 2 14 75 158 14 163 119 3 78-121 87-175 55-17-10-28-26-33-46l33-7c5 56 141 63 141-1 0-78-155-14-162-118-5-82 145-84 179-34 5 7 8 16 11 25" id="aN"/><g id="J"><use transform="matrix(0.05,0,0,0.05,0,0)" xlink:href="#aN"/><use transform="matrix(0.05,0,0,0.05,12,0)" xlink:href="#aL"/><use transform="matrix(0.05,0,0,0.05,22,0)" xlink:href="#ax"/><use transform="matrix(0.05,0,0,0.05,25.950000000000003,0)" xlink:href="#ay"/><use transform="matrix(0.05,0,0,0.05,35.95,0)" xlink:href="#aJ"/><use transform="matrix(0.05,0,0,0.05,50.900000000000006,0)" xlink:href="#aq"/><use transform="matrix(0.05,0,0,0.05,60.900000000000006,0)" xlink:href="#au"/><use transform="matrix(0.05,0,0,0.05,70.9,0)" xlink:href="#ah"/><use transform="matrix(0.05,0,0,0.05,75.9,0)" xlink:href="#aD"/><use transform="matrix(0.05,0,0,0.05,85.9,0)" xlink:href="#ak"/><use transform="matrix(0.05,0,0,0.05,98.85000000000001,0)" xlink:href="#ap"/><use transform="matrix(0.05,0,0,0.05,108.85000000000001,0)" xlink:href="#ah"/><use transform="matrix(0.05,0,0,0.05,113.85000000000001,0)" xlink:href="#aq"/></g><path fill="#333" d="M108 0H70L1-190h34L89-25l56-165h34" id="aO"/><g id="K"><use transform="matrix(0.05,0,0,0.05,0,0)" xlink:href="#ak"/><use transform="matrix(0.05,0,0,0.05,12.950000000000001,0)" xlink:href="#aq"/><use transform="matrix(0.05,0,0,0.05,22.950000000000003,0)" xlink:href="#aK"/><use transform="matrix(0.05,0,0,0.05,26.900000000000002,0)" xlink:href="#ax"/><use transform="matrix(0.05,0,0,0.05,30.85,0)" xlink:href="#aO"/><use transform="matrix(0.05,0,0,0.05,39.85,0)" xlink:href="#aq"/><use transform="matrix(0.05,0,0,0.05,49.85,0)" xlink:href="#ac"/><use transform="matrix(0.05,0,0,0.05,55.800000000000004,0)" xlink:href="#as"/><use transform="matrix(0.05,0,0,0.05,64.80000000000001,0)" xlink:href="#aD"/><use transform="matrix(0.05,0,0,0.05,74.80000000000001,0)" xlink:href="#ak"/><use transform="matrix(0.05,0,0,0.05,87.75000000000001,0)" xlink:href="#ap"/><use transform="matrix(0.05,0,0,0.05,97.75000000000001,0)" xlink:href="#ah"/><use transform="matrix(0.05,0,0,0.05,102.75,0)" xlink:href="#aq"/></g><g id="L"><use transform="matrix(0.05,0,0,0.05,0,0)" xlink:href="#ak"/><use transform="matrix(0.05,0,0,0.05,12.950000000000001,0)" xlink:href="#aq"/><use transform="matrix(0.05,0,0,0.05,22.950000000000003,0)" xlink:href="#aK"/><use transform="matrix(0.05,0,0,0.05,26.900000000000002,0)" xlink:href="#ax"/><use transform="matrix(0.05,0,0,0.05,30.85,0)" xlink:href="#aO"/><use transform="matrix(0.05,0,0,0.05,39.85,0)" xlink:href="#aq"/><use transform="matrix(0.05,0,0,0.05,49.85,0)" xlink:href="#ac"/><use transform="matrix(0.05,0,0,0.05,55.800000000000004,0)" xlink:href="#as"/><use transform="matrix(0.05,0,0,0.05,64.80000000000001,0)" xlink:href="#aD"/><use transform="matrix(0.05,0,0,0.05,74.80000000000001,0)" xlink:href="#aN"/><use transform="matrix(0.05,0,0,0.05,86.80000000000001,0)" xlink:href="#aq"/><use transform="matrix(0.05,0,0,0.05,96.80000000000001,0)" xlink:href="#ac"/><use transform="matrix(0.05,0,0,0.05,102.75,0)" xlink:href="#aO"/><use transform="matrix(0.05,0,0,0.05,111.75,0)" xlink:href="#ax"/><use transform="matrix(0.05,0,0,0.05,115.7,0)" xlink:href="#ag"/><use transform="matrix(0.05,0,0,0.05,124.7,0)" xlink:href="#aq"/><use transform="matrix(0.05,0,0,0.05,134.70000000000002,0)" xlink:href="#aj"/><use transform="matrix(0.05,0,0,0.05,139.70000000000002,0)" xlink:href="#ak"/></g><g id="M"><use transform="matrix(0.05,0,0,0.05,0,0)" xlink:href="#aE"/><use transform="matrix(0.05,0,0,0.05,14,0)" xlink:href="#ac"/><use transform="matrix(0.05,0,0,0.05,19.95,0)" xlink:href="#ae"/><use transform="matrix(0.05,0,0,0.05,29.950000000000003,0)" xlink:href="#aq"/><use transform="matrix(0.05,0,0,0.05,39.95,0)" xlink:href="#ac"/><use transform="matrix(0.05,0,0,0.05,45.900000000000006,0)" xlink:href="#aH"/><use transform="matrix(0.05,0,0,0.05,55.900000000000006,0)" xlink:href="#ax"/><use transform="matrix(0.05,0,0,0.05,59.85,0)" xlink:href="#au"/><use transform="matrix(0.05,0,0,0.05,69.85000000000001,0)" xlink:href="#aq"/></g><g id="N"><use transform="matrix(0.05,0,0,0.05,0,0)" xlink:href="#aA"/><use transform="matrix(0.05,0,0,0.05,12,0)" xlink:href="#aJ"/><use transform="matrix(0.05,0,0,0.05,26.950000000000003,0)" xlink:href="#aJ"/><use transform="matrix(0.05,0,0,0.05,41.900000000000006,0)" xlink:href="#ad"/><use transform="matrix(0.05,0,0,0.05,51.900000000000006,0)" xlink:href="#af"/><use transform="matrix(0.05,0,0,0.05,61.900000000000006,0)" xlink:href="#au"/><use transform="matrix(0.05,0,0,0.05,71.9,0)" xlink:href="#ah"/></g><g id="O"><use transform="matrix(0.05,0,0,0.05,0,0)" xlink:href="#ab"/><use transform="matrix(0.05,0,0,0.05,12,0)" xlink:href="#ac"/><use transform="matrix(0.05,0,0,0.05,17.95,0)" xlink:href="#ax"/><use transform="matrix(0.05,0,0,0.05,21.9,0)" xlink:href="#ag"/><use transform="matrix(0.05,0,0,0.05,30.899999999999995,0)" xlink:href="#aq"/></g><path fill="#333" d="M143 0L79-87 56-68V0H24v-261h32v163l83-92h37l-77 82L181 0h-38" id="aP"/><g id="P"><use transform="matrix(0.05,0,0,0.05,0,0)" xlink:href="#ab"/><use transform="matrix(0.05,0,0,0.05,12,0)" xlink:href="#ac"/><use transform="matrix(0.05,0,0,0.05,17.95,0)" xlink:href="#ad"/><use transform="matrix(0.05,0,0,0.05,27.950000000000003,0)" xlink:href="#ae"/><use transform="matrix(0.05,0,0,0.05,37.95,0)" xlink:href="#af"/><use transform="matrix(0.05,0,0,0.05,47.95,0)" xlink:href="#ag"/><use transform="matrix(0.05,0,0,0.05,56.95,0)" xlink:href="#ah"/><use transform="matrix(0.05,0,0,0.05,61.95,0)" xlink:href="#aD"/><use transform="matrix(0.05,0,0,0.05,71.95,0)" xlink:href="#aN"/><use transform="matrix(0.05,0,0,0.05,83.95,0)" xlink:href="#ah"/><use transform="matrix(0.05,0,0,0.05,88.95,0)" xlink:href="#ad"/><use transform="matrix(0.05,0,0,0.05,98.95,0)" xlink:href="#ag"/><use transform="matrix(0.05,0,0,0.05,107.95,0)" xlink:href="#aP"/></g><path fill="#333" d="M266 0h-40l-56-210L115 0H75L2-248h35L96-30l15-64 43-154h32l59 218 59-218h35" id="aQ"/><g id="Q"><use transform="matrix(0.05,0,0,0.05,0,0)" xlink:href="#aQ"/><use transform="matrix(0.05,0,0,0.05,16.3,0)" xlink:href="#ap"/><use transform="matrix(0.05,0,0,0.05,26.3,0)" xlink:href="#ac"/><use transform="matrix(0.05,0,0,0.05,32.25,0)" xlink:href="#aq"/><use transform="matrix(0.05,0,0,0.05,42.25,0)" xlink:href="#aL"/><use transform="matrix(0.05,0,0,0.05,52.25,0)" xlink:href="#ad"/><use transform="matrix(0.05,0,0,0.05,62.25,0)" xlink:href="#af"/><use transform="matrix(0.05,0,0,0.05,72.25,0)" xlink:href="#aw"/><use transform="matrix(0.05,0,0,0.05,81.25,0)" xlink:href="#aq"/><use transform="matrix(0.05,0,0,0.05,91.25,0)" xlink:href="#aj"/><use transform="matrix(0.05,0,0,0.05,96.25,0)" xlink:href="#ak"/></g><g id="R"><use transform="matrix(0.05,0,0,0.05,0,0)" xlink:href="#aQ"/><use transform="matrix(0.05,0,0,0.05,16.3,0)" xlink:href="#ap"/><use transform="matrix(0.05,0,0,0.05,26.3,0)" xlink:href="#ac"/><use transform="matrix(0.05,0,0,0.05,32.25,0)" xlink:href="#aq"/><use transform="matrix(0.05,0,0,0.05,42.25,0)" xlink:href="#aL"/><use transform="matrix(0.05,0,0,0.05,52.25,0)" xlink:href="#ad"/><use transform="matrix(0.05,0,0,0.05,62.25,0)" xlink:href="#af"/><use transform="matrix(0.05,0,0,0.05,72.25,0)" xlink:href="#aw"/><use transform="matrix(0.05,0,0,0.05,81.25,0)" xlink:href="#aq"/></g><g id="S"><use transform="matrix(0.05,0,0,0.05,0,0)" xlink:href="#ak"/><use transform="matrix(0.05,0,0,0.05,12.950000000000001,0)" xlink:href="#aq"/><use transform="matrix(0.05,0,0,0.05,22.950000000000003,0)" xlink:href="#ay"/><use transform="matrix(0.05,0,0,0.05,32.95,0)" xlink:href="#ap"/><use transform="matrix(0.05,0,0,0.05,42.95,0)" xlink:href="#ac"/><use transform="matrix(0.05,0,0,0.05,48.900000000000006,0)" xlink:href="#ah"/><use transform="matrix(0.05,0,0,0.05,53.900000000000006,0)" xlink:href="#aJ"/><use transform="matrix(0.05,0,0,0.05,68.85000000000001,0)" xlink:href="#aq"/><use transform="matrix(0.05,0,0,0.05,78.85000000000001,0)" xlink:href="#au"/><use transform="matrix(0.05,0,0,0.05,88.85000000000001,0)" xlink:href="#ah"/><use transform="matrix(0.05,0,0,0.05,93.85000000000001,0)" xlink:href="#aj"/><use transform="matrix(0.05,0,0,0.05,98.85000000000001,0)" xlink:href="#ak"/></g><g id="T"><use transform="matrix(0.05,0,0,0.05,0,0)" xlink:href="#ak"/><use transform="matrix(0.05,0,0,0.05,12.950000000000001,0)" xlink:href="#aq"/><use transform="matrix(0.05,0,0,0.05,22.950000000000003,0)" xlink:href="#ay"/><use transform="matrix(0.05,0,0,0.05,32.95,0)" xlink:href="#ap"/><use transform="matrix(0.05,0,0,0.05,42.95,0)" xlink:href="#ac"/><use transform="matrix(0.05,0,0,0.05,48.900000000000006,0)" xlink:href="#ah"/><use transform="matrix(0.05,0,0,0.05,53.900000000000006,0)" xlink:href="#aJ"/><use transform="matrix(0.05,0,0,0.05,68.85000000000001,0)" xlink:href="#aq"/><use transform="matrix(0.05,0,0,0.05,78.85000000000001,0)" xlink:href="#au"/><use transform="matrix(0.05,0,0,0.05,88.85000000000001,0)" xlink:href="#ah"/></g><g id="U"><use transform="matrix(0.05,0,0,0.05,0,0)" xlink:href="#aI"/><use transform="matrix(0.05,0,0,0.05,12,0)" xlink:href="#aJ"/><use transform="matrix(0.05,0,0,0.05,26.950000000000003,0)" xlink:href="#ay"/><use transform="matrix(0.05,0,0,0.05,36.95,0)" xlink:href="#aK"/><use transform="matrix(0.05,0,0,0.05,40.900000000000006,0)" xlink:href="#ad"/><use transform="matrix(0.05,0,0,0.05,50.900000000000006,0)" xlink:href="#as"/><use transform="matrix(0.05,0,0,0.05,59.900000000000006,0)" xlink:href="#aq"/><use transform="matrix(0.05,0,0,0.05,69.9,0)" xlink:href="#aq"/></g><g id="V"><use transform="matrix(0.05,0,0,0.05,0,0)" xlink:href="#al"/><use transform="matrix(0.05,0,0,0.05,12.950000000000001,0)" xlink:href="#ap"/><use transform="matrix(0.05,0,0,0.05,22.950000000000003,0)" xlink:href="#aJ"/><use transform="matrix(0.05,0,0,0.05,37.900000000000006,0)" xlink:href="#aq"/><use transform="matrix(0.05,0,0,0.05,47.900000000000006,0)" xlink:href="#aD"/><use transform="matrix(0.05,0,0,0.05,57.900000000000006,0)" xlink:href="#am"/><use transform="matrix(0.05,0,0,0.05,66.85000000000001,0)" xlink:href="#ap"/><use transform="matrix(0.05,0,0,0.05,76.85000000000001,0)" xlink:href="#aM"/><use transform="matrix(0.05,0,0,0.05,86.85000000000001,0)" xlink:href="#aK"/><use transform="matrix(0.05,0,0,0.05,90.80000000000001,0)" xlink:href="#aq"/></g><g id="W"><use transform="matrix(0.05,0,0,0.05,0,0)" xlink:href="#an"/><use transform="matrix(0.05,0,0,0.05,10.950000000000001,0)" xlink:href="#ax"/><use transform="matrix(0.05,0,0,0.05,14.9,0)" xlink:href="#ac"/><use transform="matrix(0.05,0,0,0.05,20.85,0)" xlink:href="#aw"/><use transform="matrix(0.05,0,0,0.05,29.85,0)" xlink:href="#ah"/><use transform="matrix(0.05,0,0,0.05,34.85,0)" xlink:href="#aD"/><use transform="matrix(0.05,0,0,0.05,44.85,0)" xlink:href="#al"/><use transform="matrix(0.05,0,0,0.05,57.800000000000004,0)" xlink:href="#ap"/><use transform="matrix(0.05,0,0,0.05,67.80000000000001,0)" xlink:href="#aJ"/><use transform="matrix(0.05,0,0,0.05,82.75000000000001,0)" xlink:href="#aq"/></g><g id="X"><use transform="matrix(0.05,0,0,0.05,0,0)" xlink:href="#aH"/><use transform="matrix(0.05,0,0,0.05,10,0)" xlink:href="#ap"/><use transform="matrix(0.05,0,0,0.05,20,0)" xlink:href="#aw"/><use transform="matrix(0.05,0,0,0.05,29,0)" xlink:href="#ah"/><use transform="matrix(0.05,0,0,0.05,34,0)" xlink:href="#aD"/><use transform="matrix(0.05,0,0,0.05,44,0)" xlink:href="#al"/><use transform="matrix(0.05,0,0,0.05,56.95,0)" xlink:href="#ap"/><use transform="matrix(0.05,0,0,0.05,66.95,0)" xlink:href="#aJ"/><use transform="matrix(0.05,0,0,0.05,81.9,0)" xlink:href="#aq"/></g><g id="Y"><use transform="matrix(0.05,0,0,0.05,0,0)" xlink:href="#aI"/><use transform="matrix(0.05,0,0,0.05,12,0)" xlink:href="#aJ"/><use transform="matrix(0.05,0,0,0.05,26.950000000000003,0)" xlink:href="#ap"/><use transform="matrix(0.05,0,0,0.05,36.95,0)" xlink:href="#ax"/><use transform="matrix(0.05,0,0,0.05,40.900000000000006,0)" xlink:href="#aK"/></g><g id="Z"><use transform="matrix(0.05,0,0,0.05,0,0)" xlink:href="#ak"/><use transform="matrix(0.05,0,0,0.05,12.950000000000001,0)" xlink:href="#aq"/><use transform="matrix(0.05,0,0,0.05,22.950000000000003,0)" xlink:href="#aK"/><use transform="matrix(0.05,0,0,0.05,26.900000000000002,0)" xlink:href="#ax"/><use transform="matrix(0.05,0,0,0.05,30.85,0)" xlink:href="#aO"/><use transform="matrix(0.05,0,0,0.05,39.85,0)" xlink:href="#aq"/><use transform="matrix(0.05,0,0,0.05,49.85,0)" xlink:href="#ac"/><use transform="matrix(0.05,0,0,0.05,55.800000000000004,0)" xlink:href="#as"/><use transform="matrix(0.05,0,0,0.05,64.80000000000001,0)" xlink:href="#aD"/><use transform="matrix(0.05,0,0,0.05,74.80000000000001,0)" xlink:href="#aN"/><use transform="matrix(0.05,0,0,0.05,86.80000000000001,0)" xlink:href="#aq"/><use transform="matrix(0.05,0,0,0.05,96.80000000000001,0)" xlink:href="#ac"/><use transform="matrix(0.05,0,0,0.05,102.75,0)" xlink:href="#aO"/><use transform="matrix(0.05,0,0,0.05,111.75,0)" xlink:href="#ax"/><use transform="matrix(0.05,0,0,0.05,115.7,0)" xlink:href="#ag"/><use transform="matrix(0.05,0,0,0.05,124.7,0)" xlink:href="#aq"/></g><g id="aa"><use transform="matrix(0.05,0,0,0.05,0,0)" xlink:href="#ao"/><use transform="matrix(0.05,0,0,0.05,12.950000000000001,0)" xlink:href="#ad"/><use transform="matrix(0.05,0,0,0.05,22.950000000000003,0)" xlink:href="#af"/><use transform="matrix(0.05,0,0,0.05,32.95,0)" xlink:href="#ac"/><use transform="matrix(0.05,0,0,0.05,38.900000000000006,0)" xlink:href="#ax"/><use transform="matrix(0.05,0,0,0.05,42.85000000000001,0)" xlink:href="#aq"/><use transform="matrix(0.05,0,0,0.05,52.85,0)" xlink:href="#ac"/><use transform="matrix(0.05,0,0,0.05,58.80000000000001,0)" xlink:href="#aD"/><use transform="matrix(0.05,0,0,0.05,68.80000000000001,0)" xlink:href="#al"/><use transform="matrix(0.05,0,0,0.05,81.75000000000001,0)" xlink:href="#ap"/><use transform="matrix(0.05,0,0,0.05,91.75000000000001,0)" xlink:href="#aJ"/><use transform="matrix(0.05,0,0,0.05,106.7,0)" xlink:href="#aq"/></g></defs></g></svg>