<svg xmlns="http://www.w3.org/2000/svg" xmlns:xlink="http://www.w3.org/1999/xlink" xmlns:lucid="lucid" width="1680" height="1246.73"><g transform="translate(-40 -20)" lucid:page-tab-id="HWEp-vi-RSFO"><path d="M0 0h1793.46v1347.35H0z" fill="#fff"/><path d="M1300 100c0 33.14-40.3 60-90 60s-90-26.86-90-60 40.3-60 90-60 90 26.86 90 60z" stroke="#333" fill="#fff"/><use xlink:href="#a" transform="matrix(1,0,0,1,1120,40) translate(40.529999999999994 63.15)"/><use xlink:href="#b" transform="matrix(1,0,0,1,1120,40) translate(77.53 63.15)"/><path d="M1500 100c0 33.14-40.3 60-90 60s-90-26.86-90-60 40.3-60 90-60 90 26.86 90 60z" stroke="#333" fill="#fff"/><use xlink:href="#c" transform="matrix(1,0,0,1,1320,40) translate(30.57999999999999 63.15)"/><use xlink:href="#b" transform="matrix(1,0,0,1,1320,40) translate(87.48 63.15)"/><path d="M1700 100c0 33.14-40.3 60-90 60s-90-26.86-90-60 40.3-60 90-60 90 26.86 90 60z" stroke="#333" fill="#fff"/><use xlink:href="#d" transform="matrix(1,0,0,1,1520,40) translate(27.554999999999986 63.15)"/><use xlink:href="#b" transform="matrix(1,0,0,1,1520,40) translate(90.505 63.15)"/><path d="M1300 317.35c0 33.13-40.3 60-90 60s-90-26.87-90-60c0-33.14 40.3-60 90-60s90 26.86 90 60z" stroke="#333" fill="#fff"/><use xlink:href="#d" transform="matrix(1,0,0,1,1120,257.3451503755166) translate(36.029999999999994 63.15)"/><use xlink:href="#e" transform="matrix(1,0,0,1,1120,257.3451503755166) translate(98.98 63.15)"/><path d="M900 534.7c0 33.13-40.3 60-90 60s-90-26.87-90-60c0-33.15 40.3-60 90-60s90 26.85 90 60z" stroke="#333" fill="#fff"/><use xlink:href="#f" transform="matrix(1,0,0,1,720,474.6903007510332) translate(26.07999999999999 63.15)"/><use xlink:href="#g" transform="matrix(1,0,0,1,720,474.6903007510332) translate(60.07999999999999 63.15)"/><path d="M1300 534.7c0 33.13-40.3 60-90 60s-90-26.87-90-60c0-33.15 40.3-60 90-60s90 26.85 90 60z" stroke="#333" fill="#fff"/><use xlink:href="#h" transform="matrix(1,0,0,1,1120,474.6903007510332) translate(33.555 63.15)"/><use xlink:href="#i" transform="matrix(1,0,0,1,1120,474.6903007510332) translate(67.555 63.15)"/><path d="M1510 534.7c0 33.13-40.3 60-90 60s-90-26.87-90-60c0-33.15 40.3-60 90-60s90 26.85 90 60z" stroke="#333" fill="#fff"/><use xlink:href="#f" transform="matrix(1,0,0,1,1330,474.6903007510332) translate(22.880000000000003 63.15)"/><use xlink:href="#j" transform="matrix(1,0,0,1,1330,474.6903007510332) translate(56.88 63.15)"/><path d="M1100 752.04c0 33.13-40.3 60-90 60s-90-26.87-90-60c0-33.14 40.3-60 90-60s90 26.86 90 60z" stroke="#333" fill="#fff"/><use xlink:href="#h" transform="matrix(1,0,0,1,919.9999999999999,692.0354511265498) translate(33.555 63.15)"/><use xlink:href="#i" transform="matrix(1,0,0,1,919.9999999999999,692.0354511265498) translate(67.555 63.15)"/><path d="M900 752.04c0 33.13-40.3 60-90 60s-90-26.87-90-60c0-33.14 40.3-60 90-60s90 26.86 90 60z" stroke="#333" fill="#fff"/><use xlink:href="#h" transform="matrix(1,0,0,1,720,692.0354511265498) translate(38.055 63.15)"/><use xlink:href="#k" transform="matrix(1,0,0,1,720,692.0354511265498) translate(72.055 63.15)"/><path d="M480 304.02c0-4.42 3.58-8 8-8h224c4.42 0 8 3.58 8 8v44c0 4.42-3.58 8-8 8H488c-4.42 0-8-3.58-8-8z" stroke="#000" stroke-opacity="0" fill="#fff" fill-opacity="0"/><use xlink:href="#l" transform="matrix(1,0,0,1,485,301.0177255632748) translate(64.875 28.6)"/><path d="M480 522.7c0-4.43 3.58-8 8-8h224c4.42 0 8 3.57 8 8v44c0 4.4-3.58 8-8 8H488c-4.42 0-8-3.6-8-8z" stroke="#000" stroke-opacity="0" fill="#fff" fill-opacity="0"/><use xlink:href="#m" transform="matrix(1,0,0,1,485,519.6903007510332) translate(63.574999999999996 28.6)"/><path d="M480 730.04c0-4.42 3.58-8 8-8h224c4.42 0 8 3.58 8 8v44c0 4.4-3.58 8-8 8H488c-4.42 0-8-3.6-8-8z" stroke="#000" stroke-opacity="0" fill="#fff" fill-opacity="0"/><use xlink:href="#n" transform="matrix(1,0,0,1,485,727.0354511265498) translate(75.55 28.6)"/><path d="M1300 752.04c0 33.13-40.3 60-90 60s-90-26.87-90-60c0-33.14 40.3-60 90-60s90 26.86 90 60z" stroke="#333" fill="#fff"/><use xlink:href="#o" transform="matrix(1,0,0,1,1120,692.0354511265498) translate(36.555 63.15)"/><use xlink:href="#k" transform="matrix(1,0,0,1,1120,692.0354511265498) translate(73.555 63.15)"/><path d="M1500 752.04c0 33.13-40.3 60-90 60s-90-26.87-90-60c0-33.14 40.3-60 90-60s90 26.86 90 60z" stroke="#333" fill="#fff"/><use xlink:href="#p" transform="matrix(1,0,0,1,1320,692.0354511265498) translate(26.604999999999997 63.15)"/><use xlink:href="#k" transform="matrix(1,0,0,1,1320,692.0354511265498) translate(83.50500000000001 63.15)"/><path d="M1700 752.04c0 33.13-40.3 60-90 60s-90-26.87-90-60c0-33.14 40.3-60 90-60s90 26.86 90 60z" stroke="#333" fill="#fff"/><use xlink:href="#q" transform="matrix(1,0,0,1,1520,692.0354511265498) translate(23.57999999999999 63.15)"/><use xlink:href="#k" transform="matrix(1,0,0,1,1520,692.0354511265498) translate(86.53 63.15)"/><path d="M1100 969.38c0 33.14-40.3 60-90 60s-90-26.86-90-60 40.3-60 90-60 90 26.86 90 60z" stroke="#333" fill="#fff"/><use xlink:href="#h" transform="matrix(1,0,0,1,919.9999999999999,909.3806015020664) translate(45.555 63.15)"/><use xlink:href="#r" transform="matrix(1,0,0,1,919.9999999999999,909.3806015020664) translate(79.555 63.15)"/><path d="M900 969.38c0 33.14-40.3 60-90 60s-90-26.86-90-60 40.3-60 90-60 90 26.86 90 60z" stroke="#333" fill="#fff"/><use xlink:href="#h" transform="matrix(1,0,0,1,720,909.3806015020664) translate(50.055 63.15)"/><use xlink:href="#s" transform="matrix(1,0,0,1,720,909.3806015020664) translate(84.055 63.15)"/><path d="M480 947.38c0-4.42 3.58-8 8-8h224c4.42 0 8 3.58 8 8v44c0 4.42-3.58 8-8 8H488c-4.42 0-8-3.58-8-8z" stroke="#000" stroke-opacity="0" fill="#fff" fill-opacity="0"/><use xlink:href="#t" transform="matrix(1,0,0,1,485,944.3806015020664) translate(87.55 28.6)"/><path d="M1300 969.38c0 33.14-40.3 60-90 60s-90-26.86-90-60 40.3-60 90-60 90 26.86 90 60z" stroke="#333" fill="#fff"/><use xlink:href="#o" transform="matrix(1,0,0,1,1120,909.3806015020664) translate(48.555 63.15)"/><use xlink:href="#s" transform="matrix(1,0,0,1,1120,909.3806015020664) translate(85.555 63.15)"/><path d="M1500 969.38c0 33.14-40.3 60-90 60s-90-26.86-90-60 40.3-60 90-60 90 26.86 90 60z" stroke="#333" fill="#fff"/><use xlink:href="#p" transform="matrix(1,0,0,1,1320,909.3806015020664) translate(38.60499999999999 63.15)"/><use xlink:href="#s" transform="matrix(1,0,0,1,1320,909.3806015020664) translate(95.505 63.15)"/><path d="M1700 969.38c0 33.14-40.3 60-90 60s-90-26.86-90-60 40.3-60 90-60 90 26.86 90 60z" stroke="#333" fill="#fff"/><use xlink:href="#q" transform="matrix(1,0,0,1,1520,909.3806015020664) translate(35.57999999999999 63.15)"/><use xlink:href="#s" transform="matrix(1,0,0,1,1520,909.3806015020664) translate(98.53 63.15)"/><path d="M1100 1186.73c0 33.13-40.3 60-90 60s-90-26.87-90-60c0-33.14 40.3-60 90-60s90 26.86 90 60z" stroke="#333" fill="#fff"/><use xlink:href="#h" transform="matrix(1,0,0,1,919.9999999999999,1126.725751877583) translate(29.57999999999999 63.15)"/><use xlink:href="#u" transform="matrix(1,0,0,1,919.9999999999999,1126.725751877583) translate(63.57999999999999 63.15)"/><path d="M900 1186.73c0 33.13-40.3 60-90 60s-90-26.87-90-60c0-33.14 40.3-60 90-60s90 26.86 90 60z" stroke="#333" fill="#fff"/><use xlink:href="#h" transform="matrix(1,0,0,1,720,1126.725751877583) translate(34.07999999999999 63.15)"/><use xlink:href="#v" transform="matrix(1,0,0,1,720,1126.725751877583) translate(68.07999999999998 63.15)"/><path d="M480 1164.73c0-4.42 3.58-8 8-8h224c4.42 0 8 3.58 8 8v44c0 4.4-3.58 8-8 8H488c-4.42 0-8-3.6-8-8z" stroke="#000" stroke-opacity="0" fill="#fff" fill-opacity="0"/><use xlink:href="#w" transform="matrix(1,0,0,1,485,1161.725751877583) translate(76.07499999999999 28.6)"/><path d="M1300 1186.73c0 33.13-40.3 60-90 60s-90-26.87-90-60c0-33.14 40.3-60 90-60s90 26.86 90 60z" stroke="#333" fill="#fff"/><use xlink:href="#o" transform="matrix(1,0,0,1,1120,1126.725751877583) translate(32.57999999999999 63.15)"/><use xlink:href="#v" transform="matrix(1,0,0,1,1120,1126.725751877583) translate(69.57999999999998 63.15)"/><path d="M1500 1186.73c0 33.13-40.3 60-90 60s-90-26.87-90-60c0-33.14 40.3-60 90-60s90 26.86 90 60z" stroke="#333" fill="#fff"/><use xlink:href="#p" transform="matrix(1,0,0,1,1320,1126.725751877583) translate(22.62999999999999 63.15)"/><use xlink:href="#v" transform="matrix(1,0,0,1,1320,1126.725751877583) translate(79.53 63.15)"/><path d="M1700 1186.73c0 33.13-40.3 60-90 60s-90-26.87-90-60c0-33.14 40.3-60 90-60s90 26.86 90 60z" stroke="#333" fill="#fff"/><use xlink:href="#q" transform="matrix(1,0,0,1,1520,1126.725751877583) translate(19.604999999999997 63.15)"/><use xlink:href="#v" transform="matrix(1,0,0,1,1520,1126.725751877583) translate(82.555 63.15)"/><path d="M119.75 594.44c0 10.9-8.84 19.75-19.75 19.75-10.9 0-19.75-8.85-19.75-19.76 0-10.9 8.84-19.75 19.75-19.75 10.9 0 19.75 8.83 19.75 19.74z" stroke="#333" fill="#fff"/><path d="M100 614.2v47.3c0 4.4 1.92 11.02 4.28 14.75L140 732.7m-40-63.2l-40 63.2m0-98.76h80" stroke="#333" fill="none"/><path d="M60 582.7c0-4.43 3.58-8 8-8h64c4.42 0 8 3.57 8 8v164c0 4.4-3.58 8-8 8H68c-4.42 0-8-3.6-8-8z" fill="none"/><use xlink:href="#x" transform="matrix(1,0,0,1,-20,732.6903007510332) translate(94.55 14.6)"/><path d="M1100 100c0 33.14-40.3 60-90 60s-90-26.86-90-60 40.3-60 90-60 90 26.86 90 60z" stroke="#333" fill="#fff"/><use xlink:href="#f" transform="matrix(1,0,0,1,919.9999999999999,40) translate(37.529999999999994 63.15)"/><use xlink:href="#y" transform="matrix(1,0,0,1,919.9999999999999,40) translate(71.53 63.15)"/><path d="M900 100c0 33.14-40.3 60-90 60s-90-26.86-90-60 40.3-60 90-60 90 26.86 90 60z" stroke="#333" fill="#fff"/><use xlink:href="#f" transform="matrix(1,0,0,1,720,40) translate(42.029999999999994 63.15)"/><use xlink:href="#b" transform="matrix(1,0,0,1,720,40) translate(76.03 63.15)"/><path d="M1110 317.35c0 33.13-40.3 60-90 60s-90-26.87-90-60c0-33.14 40.3-60 90-60s90 26.86 90 60z" stroke="#333" fill="#fff"/><use xlink:href="#f" transform="matrix(1,0,0,1,929.9999999999999,257.3451503755166) translate(22.880000000000003 63.15)"/><use xlink:href="#j" transform="matrix(1,0,0,1,929.9999999999999,257.3451503755166) translate(56.88 63.15)"/><path d="M910 317.35c0 33.13-40.3 60-90 60s-90-26.87-90-60c0-33.14 40.3-60 90-60s90 26.86 90 60z" stroke="#333" fill="#fff"/><g><use xlink:href="#f" transform="matrix(1,0,0,1,730,257.3451503755166) translate(27.380000000000003 63.15)"/><use xlink:href="#z" transform="matrix(1,0,0,1,730,257.3451503755166) translate(61.38 63.15)"/></g><path d="M1100 534.7c0 33.13-40.3 60-90 60s-90-26.87-90-60c0-33.15 40.3-60 90-60s90 26.85 90 60z" stroke="#333" fill="#fff"/><g><use xlink:href="#f" transform="matrix(1,0,0,1,919.9999999999999,474.6903007510332) translate(21.57999999999999 63.15)"/><use xlink:href="#A" transform="matrix(1,0,0,1,919.9999999999999,474.6903007510332) translate(55.57999999999999 63.15)"/></g><path d="M500 78c0-4.42 3.58-8 8-8h224c4.42 0 8 3.58 8 8v44c0 4.42-3.58 8-8 8H508c-4.42 0-8-3.58-8-8z" stroke="#000" stroke-opacity="0" fill="#fff" fill-opacity="0"/><g><use xlink:href="#B" transform="matrix(1,0,0,1,505,75) translate(79.525 28.6)"/></g><path d="M140.5 633.78l5.28-.1 5.53-.36 5.35-.56 5.17-.76 5.04-.96 4.92-1.16 4.83-1.35 4.78-1.54 4.72-1.77 4.7-1.98 4.7-2.2 4.73-2.48 4.77-2.76 4.85-3.07 4.95-3.44 5.08-3.87 5.27-4.36 5.5-4.95 5.8-5.68 6.16-6.58 6.7-7.77 7.43-9.38 8.52-11.74 10.42-15.73 15.24-25.3 53.43-93.4 10.42-15.72 8.52-11.74 7.42-9.4 6.7-7.75 6.16-6.58 5.8-5.68 5.5-4.96 5.26-4.36 5.08-3.86 4.95-3.45L415 344l4.77-2.76 4.73-2.47 4.7-2.2 4.7-2 4.72-1.75 4.77-1.55 4.82-1.35 4.92-1.15 5.04-.96 5.17-.75.3-.04" stroke="#333" fill="none"/><path d="M140.53 634.28H140v-.84h-3v-.1l3.5-.06" fill="#333"/><path d="M478.38 326.12l-13.95 5.5-.57-9.26z" stroke="#333" fill="#333"/><path d="M140.5 633.78l18.4-.38 16.46-1.02 14.6-1.53 13.23-1.95 12.2-2.33 11.48-2.7 11.07-3.08 10.96-3.57 11.3-4.2 12.44-5.24 16.16-7.65 58.56-29.45 12.44-5.24 11.3-4.2 10.95-3.57 11.07-3.1 11.48-2.7 12.2-2.32 13.23-1.94 14.6-1.54 16.46-1.02 2.52-.05" stroke="#333" fill="none"/><path d="M140.53 634.28H140v-.84h-3v-.1l3.5-.06" fill="#333"/><path d="M478.38 544.72l-14.17 4.93-.18-9.27z" stroke="#333" fill="#333"/><path d="M140.5 633.8l14 .3 13.04.8 11.86 1.25 10.93 1.6 10.2 1.95 9.63 2.26 9.2 2.57 8.94 2.9 8.8 3.27 8.8 3.7 9.08 4.28 9.7 5.07 11.03 6.4 14.86 9.45 53.73 36.1 11.03 6.37 9.7 5.07 9.06 4.28 8.8 3.7 8.8 3.27 8.93 2.9 9.2 2.56 9.64 2.26 10.2 1.95 10.93 1.6 11.86 1.25 11.16.7" stroke="#333" fill="none"/><path d="M140.53 633.3l-.02 1h-.5v-.86h-3l.02-.2" fill="#333"/><path d="M478.38 752L464 756.26l.24-9.27z" stroke="#333" fill="#333"/><path d="M140.5 633.8l4.8.1 5.1.32 4.95.52 4.8.7 4.7.9 4.58 1.08 4.52 1.26 4.48 1.46 4.44 1.65 4.43 1.85 4.44 2.1 4.46 2.33 4.52 2.6 4.6 2.92 4.68 3.26 4.83 3.67 4.98 4.12 5.2 4.68 5.46 5.35 5.8 6.17 6.22 7.22 6.8 8.58 7.6 10.48 8.82 13.3 11.02 18.26 17.22 31.5 49.34 94.28 11.02 18.25 8.82 13.3 7.6 10.5 6.8 8.57 6.22 7.22 5.8 6.17 5.45 5.34 5.2 4.68 4.97 4.13 4.83 3.66 4.7 3.27 4.58 2.9 4.52 2.62 4.46 2.33 4.44 2.1 4.43 1.85 4.44 1.65 4.48 1.46 4.52 1.25 4.6 1.08 4.68.9 3.82.56" stroke="#333" fill="none"/><path d="M140.53 633.3l-.02 1h-.5v-.86h-3l.02-.2" fill="#333"/><path d="M478.4 969.27l-14.56 3.67.62-9.25z" stroke="#333" fill="#333"/><path d="M140.5 633.8l2.75.06 3.17.2 3.12.33 3.08.44 3.04.58 3.02.7 3 .85 3.03.98 3.04 1.13 3.06 1.3 3.1 1.44 3.14 1.65 3.2 1.85 3.3 2.1 3.38 2.34 3.5 2.66 3.64 3 3.8 3.43 3.98 3.9 4.22 4.5 4.47 5.2 4.8 6.05 5.18 7.15 5.67 8.53 6.26 10.34 7.03 12.82 8.1 16.33 9.64 21.73 12.3 31.23 19.16 55.47 61.83 191.8 12.3 31.2 9.65 21.74 8.1 16.34 7.02 12.8 6.26 10.36 5.66 8.53 5.17 7.14 4.8 6.07 4.47 5.2 4.22 4.48 3.98 3.9 3.8 3.43 3.64 3 3.5 2.67 3.38 2.36 3.3 2.1 3.2 1.85 3.15 1.64 3.1 1.45 3.06 1.3 3.03 1.1 3 1 3.02.84 2.42.56" stroke="#333" fill="none"/><path d="M140.53 633.3l-.02 1h-.5v-.86h-3l.02-.2" fill="#333"/><path d="M478.4 1186.55l-14.7 3.06 1-9.2z" stroke="#333" fill="#333"/><path d="M140.5 633.78l3.27-.07 3.67-.22 3.6-.38 3.54-.52 3.5-.67 3.46-.8 3.45-.96 3.44-1.12 3.46-1.3 3.47-1.45 3.52-1.66 3.56-1.85 3.63-2.1 3.7-2.36 3.83-2.67 3.94-3 4.1-3.38 4.26-3.84 4.47-4.38 4.72-5.03 5.02-5.83 5.38-6.8 5.82-8.02 6.37-9.6 7.08-11.68 8-14.6 9.36-18.9 11.52-25.94 16.02-40.7 76.66-214.77 11.52-25.95 9.35-18.88 8.02-14.6 7.07-11.7 6.36-9.58 5.82-8.02 5.38-6.8 5.02-5.82 4.72-5.03 4.47-4.4 4.27-3.83 4.1-3.4 3.93-2.98 3.82-2.66 3.7-2.36 3.64-2.1 3.57-1.86 3.53-1.66 3.47-1.46 3.46-1.28 3.45-1.12 3.46-.97 3.46-.82 1.8-.34" stroke="#333" fill="none"/><path d="M140.53 634.28H140v-.84h-3v-.1l3.5-.06" fill="#333"/><path d="M498.4 100.15l-13.78 5.96-.87-9.22z" stroke="#333" fill="#333"/><defs><path d="M205 0l-28-72H64L36 0H1l101-248h38L239 0h-34zm-38-99l-47-123c-12 45-31 82-46 123h93" id="C"/><path d="M85-194c31 0 48 13 60 33l-1-100h32l1 261h-30c-2-10 0-23-3-31C134-8 116 4 85 4 32 4 16-35 15-94c0-66 23-100 70-100zm9 24c-40 0-46 34-46 75 0 40 6 74 45 74 42 0 51-32 51-76 0-42-9-74-50-73" id="D"/><g id="a"><use transform="matrix(0.05,0,0,0.05,0,0)" xlink:href="#C"/><use transform="matrix(0.05,0,0,0.05,12,0)" xlink:href="#D"/><use transform="matrix(0.05,0,0,0.05,22,0)" xlink:href="#D"/></g><path d="M30-248c87 1 191-15 191 75 0 78-77 80-158 76V0H30v-248zm33 125c57 0 124 11 124-50 0-59-68-47-124-48v98" id="E"/><path d="M114-163C36-179 61-72 57 0H25l-1-190h30c1 12-1 29 2 39 6-27 23-49 58-41v29" id="F"/><path d="M100-194c62-1 85 37 85 99 1 63-27 99-86 99S16-35 15-95c0-66 28-99 85-99zM99-20c44 1 53-31 53-75 0-43-8-75-51-75s-53 32-53 75 10 74 51 75" id="G"/><path d="M84 4C-5 8 30-112 23-190h32v120c0 31 7 50 39 49 72-2 45-101 50-169h31l1 190h-30c-1-10 1-25-2-33-11 22-28 36-60 37" id="H"/><path d="M96-169c-40 0-48 33-48 73s9 75 48 75c24 0 41-14 43-38l32 2c-6 37-31 61-74 61-59 0-76-41-82-99-10-93 101-131 147-64 4 7 5 14 7 22l-32 3c-4-21-16-35-41-35" id="I"/><path d="M59-47c-2 24 18 29 38 22v24C64 9 27 4 27-40v-127H5v-23h24l9-43h21v43h35v23H59v120" id="J"/><g id="b"><use transform="matrix(0.05,0,0,0.05,0,0)" xlink:href="#E"/><use transform="matrix(0.05,0,0,0.05,12,0)" xlink:href="#F"/><use transform="matrix(0.05,0,0,0.05,17.95,0)" xlink:href="#G"/><use transform="matrix(0.05,0,0,0.05,27.950000000000003,0)" xlink:href="#D"/><use transform="matrix(0.05,0,0,0.05,37.95,0)" xlink:href="#H"/><use transform="matrix(0.05,0,0,0.05,47.95,0)" xlink:href="#I"/><use transform="matrix(0.05,0,0,0.05,56.95,0)" xlink:href="#J"/></g><path d="M30-248c118-7 216 8 213 122C240-48 200 0 122 0H30v-248zM63-27c89 8 146-16 146-99s-60-101-146-95v194" id="K"/><path d="M100-194c63 0 86 42 84 106H49c0 40 14 67 53 68 26 1 43-12 49-29l28 8c-11 28-37 45-77 45C44 4 14-33 15-96c1-61 26-98 85-98zm52 81c6-60-76-77-97-28-3 7-6 17-6 28h103" id="L"/><path d="M24 0v-261h32V0H24" id="M"/><g id="c"><use transform="matrix(0.05,0,0,0.05,0,0)" xlink:href="#K"/><use transform="matrix(0.05,0,0,0.05,12.950000000000001,0)" xlink:href="#L"/><use transform="matrix(0.05,0,0,0.05,22.950000000000003,0)" xlink:href="#M"/><use transform="matrix(0.05,0,0,0.05,26.900000000000002,0)" xlink:href="#L"/><use transform="matrix(0.05,0,0,0.05,36.900000000000006,0)" xlink:href="#J"/><use transform="matrix(0.05,0,0,0.05,41.900000000000006,0)" xlink:href="#L"/></g><path d="M232-93c-1 65-40 97-104 97C67 4 28-28 28-90v-158h33c8 89-33 224 67 224 102 0 64-133 71-224h33v155" id="N"/><path d="M115-194c55 1 70 41 70 98S169 2 115 4C84 4 66-9 55-30l1 105H24l-1-265h31l2 30c10-21 28-34 59-34zm-8 174c40 0 45-34 45-75s-6-73-45-74c-42 0-51 32-51 76 0 43 10 73 51 73" id="O"/><path d="M141-36C126-15 110 5 73 4 37 3 15-17 15-53c-1-64 63-63 125-63 3-35-9-54-41-54-24 1-41 7-42 31l-33-3c5-37 33-52 76-52 45 0 72 20 72 64v82c-1 20 7 32 28 27v20c-31 9-61-2-59-35zM48-53c0 20 12 33 32 33 41-3 63-29 60-74-43 2-92-5-92 41" id="P"/><g id="d"><use transform="matrix(0.05,0,0,0.05,0,0)" xlink:href="#N"/><use transform="matrix(0.05,0,0,0.05,12.950000000000001,0)" xlink:href="#O"/><use transform="matrix(0.05,0,0,0.05,22.950000000000003,0)" xlink:href="#D"/><use transform="matrix(0.05,0,0,0.05,32.95,0)" xlink:href="#P"/><use transform="matrix(0.05,0,0,0.05,42.95,0)" xlink:href="#J"/><use transform="matrix(0.05,0,0,0.05,47.95,0)" xlink:href="#L"/></g><path d="M185-189c-5-48-123-54-124 2 14 75 158 14 163 119 3 78-121 87-175 55-17-10-28-26-33-46l33-7c5 56 141 63 141-1 0-78-155-14-162-118-5-82 145-84 179-34 5 7 8 16 11 25" id="Q"/><path d="M143 0L79-87 56-68V0H24v-261h32v163l83-92h37l-77 82L181 0h-38" id="R"/><g id="e"><use transform="matrix(0.05,0,0,0.05,0,0)" xlink:href="#Q"/><use transform="matrix(0.05,0,0,0.05,12,0)" xlink:href="#J"/><use transform="matrix(0.05,0,0,0.05,17,0)" xlink:href="#G"/><use transform="matrix(0.05,0,0,0.05,27,0)" xlink:href="#I"/><use transform="matrix(0.05,0,0,0.05,36,0)" xlink:href="#R"/></g><path d="M143 4C61 4 22-44 18-125c-5-107 100-154 193-111 17 8 29 25 37 43l-32 9c-13-25-37-40-76-40-61 0-88 39-88 99 0 61 29 100 91 101 35 0 62-11 79-27v-45h-74v-28h105v86C228-13 192 4 143 4" id="S"/><g id="f"><use transform="matrix(0.05,0,0,0.05,0,0)" xlink:href="#S"/><use transform="matrix(0.05,0,0,0.05,14,0)" xlink:href="#L"/><use transform="matrix(0.05,0,0,0.05,24,0)" xlink:href="#J"/></g><path d="M210-169c-67 3-38 105-44 169h-31v-121c0-29-5-50-35-48C34-165 62-65 56 0H25l-1-190h30c1 10-1 24 2 32 10-44 99-50 107 0 11-21 27-35 58-36 85-2 47 119 55 194h-31v-121c0-29-5-49-35-48" id="T"/><path d="M117-194c89-4 53 116 60 194h-32v-121c0-31-8-49-39-48C34-167 62-67 57 0H25l-1-190h30c1 10-1 24 2 32 11-22 29-35 61-36" id="U"/><g id="g"><use transform="matrix(0.05,0,0,0.05,0,0)" xlink:href="#K"/><use transform="matrix(0.05,0,0,0.05,12.950000000000001,0)" xlink:href="#L"/><use transform="matrix(0.05,0,0,0.05,22.950000000000003,0)" xlink:href="#O"/><use transform="matrix(0.05,0,0,0.05,32.95,0)" xlink:href="#P"/><use transform="matrix(0.05,0,0,0.05,42.95,0)" xlink:href="#F"/><use transform="matrix(0.05,0,0,0.05,48.900000000000006,0)" xlink:href="#J"/><use transform="matrix(0.05,0,0,0.05,53.900000000000006,0)" xlink:href="#T"/><use transform="matrix(0.05,0,0,0.05,68.85000000000001,0)" xlink:href="#L"/><use transform="matrix(0.05,0,0,0.05,78.85000000000001,0)" xlink:href="#U"/><use transform="matrix(0.05,0,0,0.05,88.85000000000001,0)" xlink:href="#J"/></g><g id="h"><use transform="matrix(0.05,0,0,0.05,0,0)" xlink:href="#S"/><use transform="matrix(0.05,0,0,0.05,14,0)" xlink:href="#L"/><use transform="matrix(0.05,0,0,0.05,24,0)" xlink:href="#J"/></g><path fill="#333" d="M30 0v-248h187v28H63v79h144v27H63v87h162V0H30" id="V"/><path fill="#333" d="M210-169c-67 3-38 105-44 169h-31v-121c0-29-5-50-35-48C34-165 62-65 56 0H25l-1-190h30c1 10-1 24 2 32 10-44 99-50 107 0 11-21 27-35 58-36 85-2 47 119 55 194h-31v-121c0-29-5-49-35-48" id="W"/><path fill="#333" d="M115-194c55 1 70 41 70 98S169 2 115 4C84 4 66-9 55-30l1 105H24l-1-265h31l2 30c10-21 28-34 59-34zm-8 174c40 0 45-34 45-75s-6-73-45-74c-42 0-51 32-51 76 0 43 10 73 51 73" id="X"/><path fill="#333" d="M100-194c62-1 85 37 85 99 1 63-27 99-86 99S16-35 15-95c0-66 28-99 85-99zM99-20c44 1 53-31 53-75 0-43-8-75-51-75s-53 32-53 75 10 74 51 75" id="Y"/><path fill="#333" d="M24 0v-261h32V0H24" id="Z"/><path fill="#333" d="M179-190L93 31C79 59 56 82 12 73V49c39 6 53-20 64-50L1-190h34L92-34l54-156h33" id="aa"/><path fill="#333" d="M100-194c63 0 86 42 84 106H49c0 40 14 67 53 68 26 1 43-12 49-29l28 8c-11 28-37 45-77 45C44 4 14-33 15-96c1-61 26-98 85-98zm52 81c6-60-76-77-97-28-3 7-6 17-6 28h103" id="ab"/><path fill="#333" d="M135-143c-3-34-86-38-87 0 15 53 115 12 119 90S17 21 10-45l28-5c4 36 97 45 98 0-10-56-113-15-118-90-4-57 82-63 122-42 12 7 21 19 24 35" id="ac"/><g id="i"><use transform="matrix(0.05,0,0,0.05,0,0)" xlink:href="#V"/><use transform="matrix(0.05,0,0,0.05,12,0)" xlink:href="#W"/><use transform="matrix(0.05,0,0,0.05,26.950000000000003,0)" xlink:href="#X"/><use transform="matrix(0.05,0,0,0.05,36.95,0)" xlink:href="#Y"/><use transform="matrix(0.05,0,0,0.05,46.95,0)" xlink:href="#Z"/><use transform="matrix(0.05,0,0,0.05,50.900000000000006,0)" xlink:href="#aa"/><use transform="matrix(0.05,0,0,0.05,59.900000000000006,0)" xlink:href="#ab"/><use transform="matrix(0.05,0,0,0.05,69.9,0)" xlink:href="#ac"/></g><path d="M266 0h-40l-56-210L115 0H75L2-248h35L96-30l15-64 43-154h32l59 218 59-218h35" id="ad"/><path d="M106-169C34-169 62-67 57 0H25v-261h32l-1 103c12-21 28-36 61-36 89 0 53 116 60 194h-32v-121c2-32-8-49-39-48" id="ae"/><path d="M135-143c-3-34-86-38-87 0 15 53 115 12 119 90S17 21 10-45l28-5c4 36 97 45 98 0-10-56-113-15-118-90-4-57 82-63 122-42 12 7 21 19 24 35" id="af"/><g id="j"><use transform="matrix(0.05,0,0,0.05,0,0)" xlink:href="#ad"/><use transform="matrix(0.05,0,0,0.05,16.3,0)" xlink:href="#P"/><use transform="matrix(0.05,0,0,0.05,26.3,0)" xlink:href="#F"/><use transform="matrix(0.05,0,0,0.05,32.25,0)" xlink:href="#L"/><use transform="matrix(0.05,0,0,0.05,42.25,0)" xlink:href="#ae"/><use transform="matrix(0.05,0,0,0.05,52.25,0)" xlink:href="#G"/><use transform="matrix(0.05,0,0,0.05,62.25,0)" xlink:href="#H"/><use transform="matrix(0.05,0,0,0.05,72.25,0)" xlink:href="#af"/><use transform="matrix(0.05,0,0,0.05,81.25,0)" xlink:href="#L"/><use transform="matrix(0.05,0,0,0.05,91.25,0)" xlink:href="#af"/></g><g id="k"><use transform="matrix(0.05,0,0,0.05,0,0)" xlink:href="#V"/><use transform="matrix(0.05,0,0,0.05,12,0)" xlink:href="#W"/><use transform="matrix(0.05,0,0,0.05,26.950000000000003,0)" xlink:href="#X"/><use transform="matrix(0.05,0,0,0.05,36.95,0)" xlink:href="#Y"/><use transform="matrix(0.05,0,0,0.05,46.95,0)" xlink:href="#Z"/><use transform="matrix(0.05,0,0,0.05,50.900000000000006,0)" xlink:href="#aa"/><use transform="matrix(0.05,0,0,0.05,59.900000000000006,0)" xlink:href="#ab"/></g><path fill="#333" d="M266 0h-40l-56-210L115 0H75L2-248h35L96-30l15-64 43-154h32l59 218 59-218h35" id="ag"/><path fill="#333" d="M141-36C126-15 110 5 73 4 37 3 15-17 15-53c-1-64 63-63 125-63 3-35-9-54-41-54-24 1-41 7-42 31l-33-3c5-37 33-52 76-52 45 0 72 20 72 64v82c-1 20 7 32 28 27v20c-31 9-61-2-59-35zM48-53c0 20 12 33 32 33 41-3 63-29 60-74-43 2-92-5-92 41" id="ah"/><path fill="#333" d="M114-163C36-179 61-72 57 0H25l-1-190h30c1 12-1 29 2 39 6-27 23-49 58-41v29" id="ai"/><path fill="#333" d="M106-169C34-169 62-67 57 0H25v-261h32l-1 103c12-21 28-36 61-36 89 0 53 116 60 194h-32v-121c2-32-8-49-39-48" id="aj"/><path fill="#333" d="M84 4C-5 8 30-112 23-190h32v120c0 31 7 50 39 49 72-2 45-101 50-169h31l1 190h-30c-1-10 1-25-2-33-11 22-28 36-60 37" id="ak"/><g id="l"><use transform="matrix(0.05,0,0,0.05,0,0)" xlink:href="#ag"/><use transform="matrix(0.05,0,0,0.05,16.3,0)" xlink:href="#ah"/><use transform="matrix(0.05,0,0,0.05,26.3,0)" xlink:href="#ai"/><use transform="matrix(0.05,0,0,0.05,32.25,0)" xlink:href="#ab"/><use transform="matrix(0.05,0,0,0.05,42.25,0)" xlink:href="#aj"/><use transform="matrix(0.05,0,0,0.05,52.25,0)" xlink:href="#Y"/><use transform="matrix(0.05,0,0,0.05,62.25,0)" xlink:href="#ak"/><use transform="matrix(0.05,0,0,0.05,72.25,0)" xlink:href="#ac"/><use transform="matrix(0.05,0,0,0.05,81.25,0)" xlink:href="#ab"/><use transform="matrix(0.05,0,0,0.05,91.25,0)" xlink:href="#ac"/></g><path fill="#333" d="M30-248c118-7 216 8 213 122C240-48 200 0 122 0H30v-248zM63-27c89 8 146-16 146-99s-60-101-146-95v194" id="al"/><path fill="#333" d="M59-47c-2 24 18 29 38 22v24C64 9 27 4 27-40v-127H5v-23h24l9-43h21v43h35v23H59v120" id="am"/><path fill="#333" d="M117-194c89-4 53 116 60 194h-32v-121c0-31-8-49-39-48C34-167 62-67 57 0H25l-1-190h30c1 10-1 24 2 32 11-22 29-35 61-36" id="an"/><g id="m"><use transform="matrix(0.05,0,0,0.05,0,0)" xlink:href="#al"/><use transform="matrix(0.05,0,0,0.05,12.950000000000001,0)" xlink:href="#ab"/><use transform="matrix(0.05,0,0,0.05,22.950000000000003,0)" xlink:href="#X"/><use transform="matrix(0.05,0,0,0.05,32.95,0)" xlink:href="#ah"/><use transform="matrix(0.05,0,0,0.05,42.95,0)" xlink:href="#ai"/><use transform="matrix(0.05,0,0,0.05,48.900000000000006,0)" xlink:href="#am"/><use transform="matrix(0.05,0,0,0.05,53.900000000000006,0)" xlink:href="#W"/><use transform="matrix(0.05,0,0,0.05,68.85000000000001,0)" xlink:href="#ab"/><use transform="matrix(0.05,0,0,0.05,78.85000000000001,0)" xlink:href="#an"/><use transform="matrix(0.05,0,0,0.05,88.85000000000001,0)" xlink:href="#am"/><use transform="matrix(0.05,0,0,0.05,93.85000000000001,0)" xlink:href="#ac"/></g><g id="n"><use transform="matrix(0.05,0,0,0.05,0,0)" xlink:href="#V"/><use transform="matrix(0.05,0,0,0.05,12,0)" xlink:href="#W"/><use transform="matrix(0.05,0,0,0.05,26.950000000000003,0)" xlink:href="#X"/><use transform="matrix(0.05,0,0,0.05,36.95,0)" xlink:href="#Y"/><use transform="matrix(0.05,0,0,0.05,46.95,0)" xlink:href="#Z"/><use transform="matrix(0.05,0,0,0.05,50.900000000000006,0)" xlink:href="#aa"/><use transform="matrix(0.05,0,0,0.05,59.900000000000006,0)" xlink:href="#ab"/><use transform="matrix(0.05,0,0,0.05,69.9,0)" xlink:href="#ac"/></g><g id="o"><use transform="matrix(0.05,0,0,0.05,0,0)" xlink:href="#C"/><use transform="matrix(0.05,0,0,0.05,12,0)" xlink:href="#D"/><use transform="matrix(0.05,0,0,0.05,22,0)" xlink:href="#D"/></g><g id="p"><use transform="matrix(0.05,0,0,0.05,0,0)" xlink:href="#K"/><use transform="matrix(0.05,0,0,0.05,12.950000000000001,0)" xlink:href="#L"/><use transform="matrix(0.05,0,0,0.05,22.950000000000003,0)" xlink:href="#M"/><use transform="matrix(0.05,0,0,0.05,26.900000000000002,0)" xlink:href="#L"/><use transform="matrix(0.05,0,0,0.05,36.900000000000006,0)" xlink:href="#J"/><use transform="matrix(0.05,0,0,0.05,41.900000000000006,0)" xlink:href="#L"/></g><g id="q"><use transform="matrix(0.05,0,0,0.05,0,0)" xlink:href="#N"/><use transform="matrix(0.05,0,0,0.05,12.950000000000001,0)" xlink:href="#O"/><use transform="matrix(0.05,0,0,0.05,22.950000000000003,0)" xlink:href="#D"/><use transform="matrix(0.05,0,0,0.05,32.95,0)" xlink:href="#P"/><use transform="matrix(0.05,0,0,0.05,42.95,0)" xlink:href="#J"/><use transform="matrix(0.05,0,0,0.05,47.95,0)" xlink:href="#L"/></g><path fill="#333" d="M140-251c81 0 123 46 123 126C263-46 219 4 140 4 59 4 17-45 17-125s42-126 123-126zm0 227c63 0 89-41 89-101s-29-99-89-99c-61 0-89 39-89 99S79-25 140-24" id="ao"/><path fill="#333" d="M85-194c31 0 48 13 60 33l-1-100h32l1 261h-30c-2-10 0-23-3-31C134-8 116 4 85 4 32 4 16-35 15-94c0-66 23-100 70-100zm9 24c-40 0-46 34-46 75 0 40 6 74 45 74 42 0 51-32 51-76 0-42-9-74-50-73" id="ap"/><g id="r"><use transform="matrix(0.05,0,0,0.05,0,0)" xlink:href="#ao"/><use transform="matrix(0.05,0,0,0.05,14,0)" xlink:href="#ai"/><use transform="matrix(0.05,0,0,0.05,19.95,0)" xlink:href="#ap"/><use transform="matrix(0.05,0,0,0.05,29.950000000000003,0)" xlink:href="#ab"/><use transform="matrix(0.05,0,0,0.05,39.95,0)" xlink:href="#ai"/><use transform="matrix(0.05,0,0,0.05,45.900000000000006,0)" xlink:href="#ac"/></g><g id="s"><use transform="matrix(0.05,0,0,0.05,0,0)" xlink:href="#ao"/><use transform="matrix(0.05,0,0,0.05,14,0)" xlink:href="#ai"/><use transform="matrix(0.05,0,0,0.05,19.95,0)" xlink:href="#ap"/><use transform="matrix(0.05,0,0,0.05,29.950000000000003,0)" xlink:href="#ab"/><use transform="matrix(0.05,0,0,0.05,39.95,0)" xlink:href="#ai"/></g><g id="t"><use transform="matrix(0.05,0,0,0.05,0,0)" xlink:href="#ao"/><use transform="matrix(0.05,0,0,0.05,14,0)" xlink:href="#ai"/><use transform="matrix(0.05,0,0,0.05,19.95,0)" xlink:href="#ap"/><use transform="matrix(0.05,0,0,0.05,29.950000000000003,0)" xlink:href="#ab"/><use transform="matrix(0.05,0,0,0.05,39.95,0)" xlink:href="#ai"/><use transform="matrix(0.05,0,0,0.05,45.900000000000006,0)" xlink:href="#ac"/></g><path fill="#333" d="M212-179c-10-28-35-45-73-45-59 0-87 40-87 99 0 60 29 101 89 101 43 0 62-24 78-52l27 14C228-24 195 4 139 4 59 4 22-46 18-125c-6-104 99-153 187-111 19 9 31 26 39 46" id="aq"/><g id="u"><use transform="matrix(0.05,0,0,0.05,0,0)" xlink:href="#aq"/><use transform="matrix(0.05,0,0,0.05,12.950000000000001,0)" xlink:href="#ak"/><use transform="matrix(0.05,0,0,0.05,22.950000000000003,0)" xlink:href="#ac"/><use transform="matrix(0.05,0,0,0.05,31.950000000000003,0)" xlink:href="#am"/><use transform="matrix(0.05,0,0,0.05,36.95,0)" xlink:href="#Y"/><use transform="matrix(0.05,0,0,0.05,46.95,0)" xlink:href="#W"/><use transform="matrix(0.05,0,0,0.05,61.900000000000006,0)" xlink:href="#ab"/><use transform="matrix(0.05,0,0,0.05,71.9,0)" xlink:href="#ai"/><use transform="matrix(0.05,0,0,0.05,77.85000000000001,0)" xlink:href="#ac"/></g><g id="v"><use transform="matrix(0.05,0,0,0.05,0,0)" xlink:href="#aq"/><use transform="matrix(0.05,0,0,0.05,12.950000000000001,0)" xlink:href="#ak"/><use transform="matrix(0.05,0,0,0.05,22.950000000000003,0)" xlink:href="#ac"/><use transform="matrix(0.05,0,0,0.05,31.950000000000003,0)" xlink:href="#am"/><use transform="matrix(0.05,0,0,0.05,36.95,0)" xlink:href="#Y"/><use transform="matrix(0.05,0,0,0.05,46.95,0)" xlink:href="#W"/><use transform="matrix(0.05,0,0,0.05,61.900000000000006,0)" xlink:href="#ab"/><use transform="matrix(0.05,0,0,0.05,71.9,0)" xlink:href="#ai"/></g><g id="w"><use transform="matrix(0.05,0,0,0.05,0,0)" xlink:href="#aq"/><use transform="matrix(0.05,0,0,0.05,12.950000000000001,0)" xlink:href="#ak"/><use transform="matrix(0.05,0,0,0.05,22.950000000000003,0)" xlink:href="#ac"/><use transform="matrix(0.05,0,0,0.05,31.950000000000003,0)" xlink:href="#am"/><use transform="matrix(0.05,0,0,0.05,36.95,0)" xlink:href="#Y"/><use transform="matrix(0.05,0,0,0.05,46.95,0)" xlink:href="#W"/><use transform="matrix(0.05,0,0,0.05,61.900000000000006,0)" xlink:href="#ab"/><use transform="matrix(0.05,0,0,0.05,71.9,0)" xlink:href="#ai"/></g><path fill="#333" d="M205 0l-28-72H64L36 0H1l101-248h38L239 0h-34zm-38-99l-47-123c-12 45-31 82-46 123h93" id="ar"/><path fill="#333" d="M24-231v-30h32v30H24zM24 0v-190h32V0H24" id="as"/><g id="x"><use transform="matrix(0.05,0,0,0.05,0,0)" xlink:href="#ar"/><use transform="matrix(0.05,0,0,0.05,12,0)" xlink:href="#ap"/><use transform="matrix(0.05,0,0,0.05,22,0)" xlink:href="#W"/><use transform="matrix(0.05,0,0,0.05,36.95,0)" xlink:href="#as"/><use transform="matrix(0.05,0,0,0.05,40.900000000000006,0)" xlink:href="#an"/></g><g id="y"><use transform="matrix(0.05,0,0,0.05,0,0)" xlink:href="#E"/><use transform="matrix(0.05,0,0,0.05,12,0)" xlink:href="#F"/><use transform="matrix(0.05,0,0,0.05,17.95,0)" xlink:href="#G"/><use transform="matrix(0.05,0,0,0.05,27.950000000000003,0)" xlink:href="#D"/><use transform="matrix(0.05,0,0,0.05,37.95,0)" xlink:href="#H"/><use transform="matrix(0.05,0,0,0.05,47.95,0)" xlink:href="#I"/><use transform="matrix(0.05,0,0,0.05,56.95,0)" xlink:href="#J"/><use transform="matrix(0.05,0,0,0.05,61.95,0)" xlink:href="#af"/></g><g id="z"><use transform="matrix(0.05,0,0,0.05,0,0)" xlink:href="#ad"/><use transform="matrix(0.05,0,0,0.05,16.3,0)" xlink:href="#P"/><use transform="matrix(0.05,0,0,0.05,26.3,0)" xlink:href="#F"/><use transform="matrix(0.05,0,0,0.05,32.25,0)" xlink:href="#L"/><use transform="matrix(0.05,0,0,0.05,42.25,0)" xlink:href="#ae"/><use transform="matrix(0.05,0,0,0.05,52.25,0)" xlink:href="#G"/><use transform="matrix(0.05,0,0,0.05,62.25,0)" xlink:href="#H"/><use transform="matrix(0.05,0,0,0.05,72.25,0)" xlink:href="#af"/><use transform="matrix(0.05,0,0,0.05,81.25,0)" xlink:href="#L"/></g><g id="A"><use transform="matrix(0.05,0,0,0.05,0,0)" xlink:href="#K"/><use transform="matrix(0.05,0,0,0.05,12.950000000000001,0)" xlink:href="#L"/><use transform="matrix(0.05,0,0,0.05,22.950000000000003,0)" xlink:href="#O"/><use transform="matrix(0.05,0,0,0.05,32.95,0)" xlink:href="#P"/><use transform="matrix(0.05,0,0,0.05,42.95,0)" xlink:href="#F"/><use transform="matrix(0.05,0,0,0.05,48.900000000000006,0)" xlink:href="#J"/><use transform="matrix(0.05,0,0,0.05,53.900000000000006,0)" xlink:href="#T"/><use transform="matrix(0.05,0,0,0.05,68.85000000000001,0)" xlink:href="#L"/><use transform="matrix(0.05,0,0,0.05,78.85000000000001,0)" xlink:href="#U"/><use transform="matrix(0.05,0,0,0.05,88.85000000000001,0)" xlink:href="#J"/><use transform="matrix(0.05,0,0,0.05,93.85000000000001,0)" xlink:href="#af"/></g><path fill="#333" d="M30-248c87 1 191-15 191 75 0 78-77 80-158 76V0H30v-248zm33 125c57 0 124 11 124-50 0-59-68-47-124-48v98" id="at"/><path fill="#333" d="M96-169c-40 0-48 33-48 73s9 75 48 75c24 0 41-14 43-38l32 2c-6 37-31 61-74 61-59 0-76-41-82-99-10-93 101-131 147-64 4 7 5 14 7 22l-32 3c-4-21-16-35-41-35" id="au"/><g id="B"><use transform="matrix(0.05,0,0,0.05,0,0)" xlink:href="#at"/><use transform="matrix(0.05,0,0,0.05,12,0)" xlink:href="#ai"/><use transform="matrix(0.05,0,0,0.05,17.95,0)" xlink:href="#Y"/><use transform="matrix(0.05,0,0,0.05,27.950000000000003,0)" xlink:href="#ap"/><use transform="matrix(0.05,0,0,0.05,37.95,0)" xlink:href="#ak"/><use transform="matrix(0.05,0,0,0.05,47.95,0)" xlink:href="#au"/><use transform="matrix(0.05,0,0,0.05,56.95,0)" xlink:href="#am"/><use transform="matrix(0.05,0,0,0.05,61.95,0)" xlink:href="#ac"/></g></defs></g></svg>