<svg xmlns="http://www.w3.org/2000/svg" xmlns:xlink="http://www.w3.org/1999/xlink" xmlns:lucid="lucid" width="975" height="271"><g transform="translate(-301 -1959)" lucid:page-tab-id="HWEp-vi-RSFO"><path d="M0 0h2561.28v2856.3H0z" fill="#fff"/><path d="M360 2020h34.68v34.68H360zm41.04 0h37.92v34.68h-37.92zm44.28 0H480v34.68h-34.68zM360 2061.04h34.68v34.8H360zm41.04 0h37.92v34.8h-37.92zm44.28 0H480v34.8h-34.68zM360 2102.08h34.68V2140H360zm41.04 0h37.92V2140h-37.92zm44.28 0H480V2140h-34.68z" stroke="#000" stroke-opacity="0" stroke-width="3.04" fill="#4285f4"/><path d="M361.44 2021.53h117.03v117.03H361.44v-117.03z" stroke="#000" stroke-opacity="0" stroke-width="0" fill="#42132e" fill-opacity="0"/><use xlink:href="#a" transform="matrix(1,0,0,1,330,2149) translate(44.075 14.4)"/><use xlink:href="#b" transform="matrix(1,0,0,1,330,2149) translate(94.92500000000001 14.4)"/><path d="M898.32 2075.88l-28.84-49.53c-2.24-4-6.16-6.23-10.78-6.35h-57.4c-4.62.12-8.54 2.36-10.78 6.35l-28.84 49.4c-2.24 3.87-2.24 8.35 0 12.33l28.84 49.78c2.24 4.1 6.02 6.47 10.78 6.6h57.4c4.62-.13 8.54-2.5 10.78-6.6l28.84-49.4c2.24-4.12 2.24-8.6 0-12.58z" stroke="#000" stroke-opacity="0" fill="#4285f4"/><path d="M856.2 2052.72l-5.72 6.4-4.52-3.47-15.84-.1-25.62 2.3 10.4 10.26-1.55 4.6 20.82 20.6-11.33.92-3.87-3.03-6.27 6.04 12.35 12.28-11.06-.74-4.06-3.3-6 6.42 32.8 32.43h22.03c4.6-.2 8.47-2.57 10.78-6.6l26.53-45.7z" stroke="#000" stroke-opacity="0" fill-opacity=".07"/><path d="M817.92 2072.25h17.4l2.02-2-2.02-2h-17.4v4z" stroke="#000" stroke-opacity="0" fill="#fff"/><path d="M818.97 2070.25c0 1.84-1.5 3.33-3.37 3.33-1.86 0-3.37-1.5-3.37-3.33 0-1.84 1.5-3.34 3.37-3.34 1.86 0 3.37 1.5 3.37 3.35zM848.76 2070.25c0 2.4-1.96 4.32-4.37 4.32-2.43 0-4.38-1.93-4.38-4.32 0-2.4 1.95-4.33 4.37-4.33 2.4 0 4.36 1.94 4.36 4.33zM822.78 2094.18l2 2h17.17v-4H824.8l-2.02 2zM820.14 2094.18c0 2.4-1.96 4.33-4.38 4.33-2.4 0-4.37-1.93-4.37-4.32 0-2.4 1.95-4.33 4.36-4.33 2.42 0 4.38 1.94 4.38 4.33z" stroke="#000" stroke-opacity="0" fill="#fff"/><path d="M847.67 2094.18c0 1.84-1.5 3.33-3.37 3.33-1.86 0-3.37-1.48-3.37-3.32 0-1.84 1.5-3.33 3.37-3.33 1.86 0 3.37 1.5 3.37 3.33zM809.27 2057.62h34.65l2.02-2-2.02-1.98h-34.65v3.98z" stroke="#000" stroke-opacity="0" fill="#fff"/><path d="M810.35 2055.63c0 1.83-1.5 3.32-3.35 3.32s-3.36-1.5-3.36-3.32c0-1.83 1.5-3.32 3.36-3.32 1.85 0 3.35 1.5 3.35 3.33zM857.37 2055.63c0 2.4-1.96 4.33-4.37 4.33-2.4 0-4.37-1.94-4.37-4.33 0-2.4 1.96-4.33 4.37-4.33 2.4 0 4.37 1.94 4.37 4.33zM813.95 2108.8l2.02 2h34.7v-4h-34.7l-2.02 2zM811.34 2108.8c0 2.4-1.96 4.32-4.37 4.32-2.42 0-4.38-1.93-4.38-4.32 0-2.4 1.95-4.33 4.37-4.33 2.4 0 4.37 1.94 4.37 4.33z" stroke="#000" stroke-opacity="0" fill="#fff"/><path d="M856.38 2108.8c0 1.84-1.5 3.33-3.37 3.33-1.85 0-3.36-1.5-3.36-3.33 0-1.84 1.5-3.34 3.37-3.34s3.38 1.5 3.38 3.34zM834.37 2082.2c0 2.4-1.96 4.34-4.38 4.34s-4.38-1.94-4.38-4.33c0-2.38 1.96-4.32 4.37-4.32 2.4 0 4.37 1.94 4.37 4.33z" stroke="#000" stroke-opacity="0" fill="#fff"/><use xlink:href="#c" transform="matrix(1,0,0,1,760,2149.4578125) translate(28.049999999999997 14.4)"/><use xlink:href="#d" transform="matrix(1,0,0,1,760,2149.4578125) translate(62.05 14.4)"/><use xlink:href="#e" transform="matrix(1,0,0,1,760,2149.4578125) translate(72.05 14.4)"/><path d="M1172.77 2054.72c-16.23 0-32.6-4.34-32.6-12.9 0-8.52 16.37-12.93 32.6-12.93s32.6 4.33 32.6 12.88c0 8.52-16.37 12.94-32.6 12.94zm0-21.42c-17.28-.07-28.36 5.04-28.36 8.63 0 3.6 11.03 8.55 28.24 8.55 17.27 0 28.3-5.06 28.3-8.55 0-3.46-10.9-8.7-28.17-8.7z" stroke="#fff" stroke-opacity="0" fill="#4285f4"/><path d="M1172.77 2097.58c-16.23 0-32.6-4.34-32.6-12.9v-42.74h4.37v42.73c0 3.5 11.02 8.57 28.23 8.57 17.2 0 28.22-5.07 28.22-8.57v-42.73h4.36v42.73c.06 8.5-16.36 12.9-32.6 12.9z" stroke="#fff" stroke-opacity="0" fill="#4285f4"/><path d="M1172.92 2070c-16.23 0-32.6-4.36-32.6-12.9h4.37c0 3.5 11 8.54 28.22 8.54 17.2 0 28.22-5.05 28.22-8.53h4.37c.08 8.48-16.35 12.9-32.58 12.9zM1172.92 2084.93c-16.23 0-32.6-4.36-32.6-12.9h4.37c0 3.48 11 8.54 28.22 8.54 17.2 0 28.22-5.06 28.22-8.53h4.37c.08 8.44-16.35 12.9-32.58 12.9zM1172.36 2109.42c-16.2 0-28.6-4.57-32.3-11.9l3.9-2c2.14 4.36 11.02 9.55 28.47 9.55 16.93 0 26.85-5.5 28.47-9.4l4.02 1.7c-3.04 7.1-16.4 12.05-32.56 12.05zM1172.36 2125.06c-16.2 0-28.6-4.57-32.36-11.9l3.9-1.96c2.13 4.35 11.02 9.5 28.46 9.5 16.93 0 26.86-5.48 28.48-9.38l4.02 1.7c-2.98 7.08-16.35 12.04-32.5 12.04z" stroke="#fff" stroke-opacity="0" fill="#4285f4"/><path d="M1140.1 2092.35h4.35v36.74h-4.34v-36.75zM1201.2 2108.68h4.35v20.4h-4.34v-20.4zM1160.5 2096.42h4.34v18.37h-4.35v-18.38zM1180.83 2100.5h4.34v30.6h-4.34v-30.6zM1201.2 2092.35h4.35v12.26h-4.34v-12.25z" stroke="#fff" stroke-opacity="0" fill="#4285f4"/><path d="M1171.04 2030.86h3.7c19.3 0 29 4.03 29 12v67.54c0 7.96-9.7 12-29 12h-3.7c-19.3 0-29-4.04-29-12v-67.55c0-7.96 9.7-12 29-12z" stroke="#fff" stroke-opacity="0" stroke-width=".38" fill="#fff" fill-opacity="0"/><use xlink:href="#f" transform="matrix(1,0,0,1,1110,2140.114453125) translate(17.025 14.4)"/><use xlink:href="#g" transform="matrix(1,0,0,1,1110,2140.114453125) translate(59.975 14.4)"/><use xlink:href="#h" transform="matrix(1,0,0,1,1110,2140.114453125) translate(40.525 36)"/><path d="M480.5 2039.6h285.9" stroke="#333" fill="none"/><path d="M480.5 2040.1h-.5v-1h.5z" stroke="#333" stroke-width=".05" fill="#333"/><path d="M781.17 2039.6l-14.27 4.64v-9.27z" stroke="#333" fill="#333"/><path d="M515 2000h240v60H515z" stroke="#000" stroke-opacity="0" stroke-width="2" fill="#fff" fill-opacity="0"/><use xlink:href="#i" transform="matrix(1,0,0,1,520,2005) translate(55.775 28.6)"/><use xlink:href="#j" transform="matrix(1,0,0,1,520,2005) translate(107.275 28.6)"/><path d="M779.02 2118.87H496.38" stroke="#333" fill="none"/><path d="M779.8 2119.37h-.8v-1h.23z" stroke="#333" stroke-width=".05" fill="#333"/><path d="M481.62 2118.87l14.26-4.63v9.27z" stroke="#333" fill="#333"/><path d="M515 2080h240v60H515z" stroke="#000" stroke-opacity="0" stroke-width="2" fill="#fff" fill-opacity="0"/><use xlink:href="#i" transform="matrix(1,0,0,1,520,2085) translate(48.775000000000006 28.6)"/><use xlink:href="#k" transform="matrix(1,0,0,1,520,2085) translate(100.275 28.6)"/><path d="M916.34 2082.23h207.45" stroke="#333" fill="none"/><path d="M901.57 2082.23l14.27-4.64v9.26zM1138.56 2082.23l-14.27 4.63v-9.27z" stroke="#333" fill="#333"/><path d="M900 2040h240v60H900z" stroke="#000" stroke-opacity="0" stroke-width="2" fill="#fff" fill-opacity="0"/><g><use xlink:href="#l" transform="matrix(1,0,0,1,904.9999999999999,2045) translate(65.275 28.6)"/><use xlink:href="#d" transform="matrix(1,0,0,1,904.9999999999999,2045) translate(113.22500000000001 28.6)"/><use xlink:href="#m" transform="matrix(1,0,0,1,904.9999999999999,2045) translate(123.22500000000001 28.6)"/></g><path d="M530 2131.1h210v32H530z" stroke="#333" fill="#fff"/><g><use xlink:href="#n" transform="matrix(1,0,0,1,538,2139.114453125) translate(27.170061728395083 10.844444444444445)"/><use xlink:href="#o" transform="matrix(1,0,0,1,538,2139.114453125) translate(35.45401234567903 10.844444444444445)"/><use xlink:href="#p" transform="matrix(1,0,0,1,538,2139.114453125) translate(75.2922839506173 10.844444444444445)"/><use xlink:href="#q" transform="matrix(1,0,0,1,538,2139.114453125) translate(82.82314814814816 10.844444444444445)"/><use xlink:href="#r" transform="matrix(1,0,0,1,538,2139.114453125) translate(162.3114197530864 10.844444444444445)"/></g><path d="M900 2071.1h240v60H900z" stroke="#000" stroke-opacity="0" stroke-width="2" fill="#fff" fill-opacity="0"/><g><use xlink:href="#s" transform="matrix(1,0,0,1,905,2076.114453125) translate(94.05 28.6)"/></g><defs><path d="M212-179c-10-28-35-45-73-45-59 0-87 40-87 99 0 60 29 101 89 101 43 0 62-24 78-52l27 14C228-24 195 4 139 4 59 4 22-46 18-125c-6-104 99-153 187-111 19 9 31 26 39 46" id="t"/><path d="M24 0v-261h32V0H24" id="u"/><path d="M24-231v-30h32v30H24zM24 0v-190h32V0H24" id="v"/><path d="M100-194c63 0 86 42 84 106H49c0 40 14 67 53 68 26 1 43-12 49-29l28 8c-11 28-37 45-77 45C44 4 14-33 15-96c1-61 26-98 85-98zm52 81c6-60-76-77-97-28-3 7-6 17-6 28h103" id="w"/><path d="M117-194c89-4 53 116 60 194h-32v-121c0-31-8-49-39-48C34-167 62-67 57 0H25l-1-190h30c1 10-1 24 2 32 11-22 29-35 61-36" id="x"/><path d="M59-47c-2 24 18 29 38 22v24C64 9 27 4 27-40v-127H5v-23h24l9-43h21v43h35v23H59v120" id="y"/><g id="a"><use transform="matrix(0.05,0,0,0.05,0,0)" xlink:href="#t"/><use transform="matrix(0.05,0,0,0.05,12.950000000000001,0)" xlink:href="#u"/><use transform="matrix(0.05,0,0,0.05,16.900000000000002,0)" xlink:href="#v"/><use transform="matrix(0.05,0,0,0.05,20.85,0)" xlink:href="#w"/><use transform="matrix(0.05,0,0,0.05,30.85,0)" xlink:href="#x"/><use transform="matrix(0.05,0,0,0.05,40.85,0)" xlink:href="#y"/></g><path d="M205 0l-28-72H64L36 0H1l101-248h38L239 0h-34zm-38-99l-47-123c-12 45-31 82-46 123h93" id="z"/><path d="M115-194c55 1 70 41 70 98S169 2 115 4C84 4 66-9 55-30l1 105H24l-1-265h31l2 30c10-21 28-34 59-34zm-8 174c40 0 45-34 45-75s-6-73-45-74c-42 0-51 32-51 76 0 43 10 73 51 73" id="A"/><path d="M135-143c-3-34-86-38-87 0 15 53 115 12 119 90S17 21 10-45l28-5c4 36 97 45 98 0-10-56-113-15-118-90-4-57 82-63 122-42 12 7 21 19 24 35" id="B"/><g id="b"><use transform="matrix(0.05,0,0,0.05,0,0)" xlink:href="#z"/><use transform="matrix(0.05,0,0,0.05,12,0)" xlink:href="#A"/><use transform="matrix(0.05,0,0,0.05,22,0)" xlink:href="#A"/><use transform="matrix(0.05,0,0,0.05,32,0)" xlink:href="#B"/></g><path fill="#333" d="M205 0l-28-72H64L36 0H1l101-248h38L239 0h-34zm-38-99l-47-123c-12 45-31 82-46 123h93" id="C"/><path fill="#333" d="M30-248c87 1 191-15 191 75 0 78-77 80-158 76V0H30v-248zm33 125c57 0 124 11 124-50 0-59-68-47-124-48v98" id="D"/><path fill="#333" d="M33 0v-248h34V0H33" id="E"/><g id="c"><use transform="matrix(0.05,0,0,0.05,0,0)" xlink:href="#C"/><use transform="matrix(0.05,0,0,0.05,12,0)" xlink:href="#D"/><use transform="matrix(0.05,0,0,0.05,24,0)" xlink:href="#E"/></g><path fill="#333" d="M0 4l72-265h28L28 4H0" id="F"/><use transform="matrix(0.05,0,0,0.05,0,0)" xlink:href="#F" id="d"/><path fill="#333" d="M240 0l2-218c-23 76-54 145-80 218h-23L58-218 59 0H30v-248h44l77 211c21-75 51-140 76-211h43V0h-30" id="G"/><path fill="#333" d="M137 0h-34L2-248h35l83 218 83-218h36" id="H"/><path fill="#333" d="M212-179c-10-28-35-45-73-45-59 0-87 40-87 99 0 60 29 101 89 101 43 0 62-24 78-52l27 14C228-24 195 4 139 4 59 4 22-46 18-125c-6-104 99-153 187-111 19 9 31 26 39 46" id="I"/><g id="e"><use transform="matrix(0.05,0,0,0.05,0,0)" xlink:href="#G"/><use transform="matrix(0.05,0,0,0.05,14.950000000000001,0)" xlink:href="#H"/><use transform="matrix(0.05,0,0,0.05,26.950000000000003,0)" xlink:href="#I"/></g><path fill="#333" d="M30-248c118-7 216 8 213 122C240-48 200 0 122 0H30v-248zM63-27c89 8 146-16 146-99s-60-101-146-95v194" id="J"/><path fill="#333" d="M141-36C126-15 110 5 73 4 37 3 15-17 15-53c-1-64 63-63 125-63 3-35-9-54-41-54-24 1-41 7-42 31l-33-3c5-37 33-52 76-52 45 0 72 20 72 64v82c-1 20 7 32 28 27v20c-31 9-61-2-59-35zM48-53c0 20 12 33 32 33 41-3 63-29 60-74-43 2-92-5-92 41" id="K"/><path fill="#333" d="M59-47c-2 24 18 29 38 22v24C64 9 27 4 27-40v-127H5v-23h24l9-43h21v43h35v23H59v120" id="L"/><g id="f"><use transform="matrix(0.05,0,0,0.05,0,0)" xlink:href="#J"/><use transform="matrix(0.05,0,0,0.05,12.950000000000001,0)" xlink:href="#K"/><use transform="matrix(0.05,0,0,0.05,22.950000000000003,0)" xlink:href="#L"/><use transform="matrix(0.05,0,0,0.05,27.950000000000003,0)" xlink:href="#K"/></g><path fill="#333" d="M96-169c-40 0-48 33-48 73s9 75 48 75c24 0 41-14 43-38l32 2c-6 37-31 61-74 61-59 0-76-41-82-99-10-93 101-131 147-64 4 7 5 14 7 22l-32 3c-4-21-16-35-41-35" id="M"/><path fill="#333" d="M100-194c63 0 86 42 84 106H49c0 40 14 67 53 68 26 1 43-12 49-29l28 8c-11 28-37 45-77 45C44 4 14-33 15-96c1-61 26-98 85-98zm52 81c6-60-76-77-97-28-3 7-6 17-6 28h103" id="N"/><path fill="#333" d="M135-143c-3-34-86-38-87 0 15 53 115 12 119 90S17 21 10-45l28-5c4 36 97 45 98 0-10-56-113-15-118-90-4-57 82-63 122-42 12 7 21 19 24 35" id="O"/><g id="g"><use transform="matrix(0.05,0,0,0.05,0,0)" xlink:href="#C"/><use transform="matrix(0.05,0,0,0.05,12,0)" xlink:href="#M"/><use transform="matrix(0.05,0,0,0.05,21,0)" xlink:href="#M"/><use transform="matrix(0.05,0,0,0.05,30,0)" xlink:href="#N"/><use transform="matrix(0.05,0,0,0.05,40,0)" xlink:href="#O"/></g><path fill="#333" d="M30 0v-248h33v221h125V0H30" id="P"/><path fill="#333" d="M179-190L93 31C79 59 56 82 12 73V49c39 6 53-20 64-50L1-190h34L92-34l54-156h33" id="Q"/><path fill="#333" d="M114-163C36-179 61-72 57 0H25l-1-190h30c1 12-1 29 2 39 6-27 23-49 58-41v29" id="R"/><g id="h"><use transform="matrix(0.05,0,0,0.05,0,0)" xlink:href="#P"/><use transform="matrix(0.05,0,0,0.05,10,0)" xlink:href="#K"/><use transform="matrix(0.05,0,0,0.05,20,0)" xlink:href="#Q"/><use transform="matrix(0.05,0,0,0.05,29,0)" xlink:href="#N"/><use transform="matrix(0.05,0,0,0.05,39,0)" xlink:href="#R"/></g><path fill="#333" d="M197 0v-115H63V0H30v-248h33v105h134v-105h34V0h-34" id="S"/><path fill="#333" d="M127-220V0H93v-220H8v-28h204v28h-85" id="T"/><g id="i"><use transform="matrix(0.05,0,0,0.05,0,0)" xlink:href="#S"/><use transform="matrix(0.05,0,0,0.05,12.950000000000001,0)" xlink:href="#T"/><use transform="matrix(0.05,0,0,0.05,23.900000000000002,0)" xlink:href="#T"/><use transform="matrix(0.05,0,0,0.05,34.85,0)" xlink:href="#D"/></g><path fill="#333" d="M233-177c-1 41-23 64-60 70L243 0h-38l-65-103H63V0H30v-248c88 3 205-21 203 71zM63-129c60-2 137 13 137-47 0-61-80-42-137-45v92" id="U"/><path fill="#333" d="M145-31C134-9 116 4 85 4 32 4 16-35 15-94c0-59 17-99 70-100 32-1 48 14 60 33 0-11-1-24 2-32h30l-1 268h-32zM93-21c41 0 51-33 51-76s-8-73-50-73c-40 0-46 35-46 75s5 74 45 74" id="V"/><path fill="#333" d="M84 4C-5 8 30-112 23-190h32v120c0 31 7 50 39 49 72-2 45-101 50-169h31l1 190h-30c-1-10 1-25-2-33-11 22-28 36-60 37" id="W"/><g id="j"><use transform="matrix(0.05,0,0,0.05,0,0)" xlink:href="#U"/><use transform="matrix(0.05,0,0,0.05,12.950000000000001,0)" xlink:href="#N"/><use transform="matrix(0.05,0,0,0.05,22.950000000000003,0)" xlink:href="#V"/><use transform="matrix(0.05,0,0,0.05,32.95,0)" xlink:href="#W"/><use transform="matrix(0.05,0,0,0.05,42.95,0)" xlink:href="#N"/><use transform="matrix(0.05,0,0,0.05,52.95,0)" xlink:href="#O"/><use transform="matrix(0.05,0,0,0.05,61.95,0)" xlink:href="#L"/></g><path fill="#333" d="M115-194c55 1 70 41 70 98S169 2 115 4C84 4 66-9 55-30l1 105H24l-1-265h31l2 30c10-21 28-34 59-34zm-8 174c40 0 45-34 45-75s-6-73-45-74c-42 0-51 32-51 76 0 43 10 73 51 73" id="X"/><path fill="#333" d="M100-194c62-1 85 37 85 99 1 63-27 99-86 99S16-35 15-95c0-66 28-99 85-99zM99-20c44 1 53-31 53-75 0-43-8-75-51-75s-53 32-53 75 10 74 51 75" id="Y"/><path fill="#333" d="M117-194c89-4 53 116 60 194h-32v-121c0-31-8-49-39-48C34-167 62-67 57 0H25l-1-190h30c1 10-1 24 2 32 11-22 29-35 61-36" id="Z"/><g id="k"><use transform="matrix(0.05,0,0,0.05,0,0)" xlink:href="#U"/><use transform="matrix(0.05,0,0,0.05,12.950000000000001,0)" xlink:href="#N"/><use transform="matrix(0.05,0,0,0.05,22.950000000000003,0)" xlink:href="#O"/><use transform="matrix(0.05,0,0,0.05,31.950000000000003,0)" xlink:href="#X"/><use transform="matrix(0.05,0,0,0.05,41.95,0)" xlink:href="#Y"/><use transform="matrix(0.05,0,0,0.05,51.95,0)" xlink:href="#Z"/><use transform="matrix(0.05,0,0,0.05,61.95,0)" xlink:href="#O"/><use transform="matrix(0.05,0,0,0.05,70.95,0)" xlink:href="#N"/></g><path fill="#333" d="M85-194c31 0 48 13 60 33l-1-100h32l1 261h-30c-2-10 0-23-3-31C134-8 116 4 85 4 32 4 16-35 15-94c0-66 23-100 70-100zm9 24c-40 0-46 34-46 75 0 40 6 74 45 74 42 0 51-32 51-76 0-42-9-74-50-73" id="aa"/><g id="l"><use transform="matrix(0.05,0,0,0.05,0,0)" xlink:href="#U"/><use transform="matrix(0.05,0,0,0.05,12.950000000000001,0)" xlink:href="#N"/><use transform="matrix(0.05,0,0,0.05,22.950000000000003,0)" xlink:href="#K"/><use transform="matrix(0.05,0,0,0.05,32.95,0)" xlink:href="#aa"/></g><path fill="#333" d="M266 0h-40l-56-210L115 0H75L2-248h35L96-30l15-64 43-154h32l59 218 59-218h35" id="ab"/><path fill="#333" d="M24-231v-30h32v30H24zM24 0v-190h32V0H24" id="ac"/><g id="m"><use transform="matrix(0.05,0,0,0.05,0,0)" xlink:href="#ab"/><use transform="matrix(0.05,0,0,0.05,16.599999999999998,0)" xlink:href="#R"/><use transform="matrix(0.05,0,0,0.05,22.549999999999997,0)" xlink:href="#ac"/><use transform="matrix(0.05,0,0,0.05,26.499999999999996,0)" xlink:href="#L"/><use transform="matrix(0.05,0,0,0.05,31.499999999999996,0)" xlink:href="#N"/></g><path fill="#333" d="M39-94c74 12-11 154 75 146v23c-44 4-70-10-70-52C44-23 55-84 6-82v-22c81 4-7-162 84-157h24v23c-82-15-2 131-75 144" id="ad"/><use transform="matrix(0.03765432098765432,0,0,0.03765432098765432,0,0)" xlink:href="#ad" id="n"/><path fill="#333" d="M190 0L58-211 59 0H30v-248h39L202-35l-2-213h31V0h-41" id="ae"/><path fill="#333" d="M210-169c-67 3-38 105-44 169h-31v-121c0-29-5-50-35-48C34-165 62-65 56 0H25l-1-190h30c1 10-1 24 2 32 10-44 99-50 107 0 11-21 27-35 58-36 85-2 47 119 55 194h-31v-121c0-29-5-49-35-48" id="af"/><g id="o"><use transform="matrix(0.03765432098765432,0,0,0.03765432098765432,0,0)" xlink:href="#ae"/><use transform="matrix(0.03765432098765432,0,0,0.03765432098765432,9.752469135802468,0)" xlink:href="#K"/><use transform="matrix(0.03765432098765432,0,0,0.03765432098765432,17.28333333333333,0)" xlink:href="#af"/><use transform="matrix(0.03765432098765432,0,0,0.03765432098765432,28.541975308641973,0)" xlink:href="#N"/></g><path fill="#333" d="M33-154v-36h34v36H33zM33 0v-36h34V0H33" id="ag"/><use transform="matrix(0.03765432098765432,0,0,0.03765432098765432,0,0)" xlink:href="#ag" id="p"/><path fill="#333" d="M109-170H84l-4-78h32zm-65 0H19l-4-78h33" id="ah"/><path fill="#333" d="M27 0v-27h64v-190l-56 39v-29l58-41h29v221h61V0H27" id="ai"/><g id="q"><use transform="matrix(0.03765432098765432,0,0,0.03765432098765432,0,0)" xlink:href="#ah"/><use transform="matrix(0.03765432098765432,0,0,0.03765432098765432,4.7820987654320986,0)" xlink:href="#I"/><use transform="matrix(0.03765432098765432,0,0,0.03765432098765432,14.534567901234567,0)" xlink:href="#W"/><use transform="matrix(0.03765432098765432,0,0,0.03765432098765432,22.06543209876543,0)" xlink:href="#O"/><use transform="matrix(0.03765432098765432,0,0,0.03765432098765432,28.843209876543206,0)" xlink:href="#L"/><use transform="matrix(0.03765432098765432,0,0,0.03765432098765432,32.608641975308636,0)" xlink:href="#Y"/><use transform="matrix(0.03765432098765432,0,0,0.03765432098765432,40.1395061728395,0)" xlink:href="#af"/><use transform="matrix(0.03765432098765432,0,0,0.03765432098765432,51.398148148148145,0)" xlink:href="#N"/><use transform="matrix(0.03765432098765432,0,0,0.03765432098765432,58.92901234567901,0)" xlink:href="#R"/><use transform="matrix(0.03765432098765432,0,0,0.03765432098765432,63.409876543209876,0)" xlink:href="#ai"/><use transform="matrix(0.03765432098765432,0,0,0.03765432098765432,70.94074074074074,0)" xlink:href="#ah"/></g><path fill="#333" d="M76-40C78 24 84 88 6 75V52C86 64 9-79 80-94c-40-6-34-59-34-106 1-29-11-41-40-38v-23c44-4 70 10 70 52 0 47-12 108 38 105v22c-26 1-39 14-38 42" id="aj"/><use transform="matrix(0.03765432098765432,0,0,0.03765432098765432,0,0)" xlink:href="#aj" id="r"/><path fill="#333" d="M140-251c81 0 123 46 123 126C263-46 219 4 140 4 59 4 17-45 17-125s42-126 123-126zm0 227c63 0 89-41 89-101s-29-99-89-99c-61 0-89 39-89 99S79-25 140-24" id="ak"/><g id="s"><use transform="matrix(0.05,0,0,0.05,0,0)" xlink:href="#ak"/><use transform="matrix(0.05,0,0,0.05,14,0)" xlink:href="#U"/><use transform="matrix(0.05,0,0,0.05,26.950000000000003,0)" xlink:href="#G"/></g></defs></g></svg>
